<?xml version="1.0" standalone="no"?>
<!DOCTYPE svg PUBLIC "-//W3C//DTD SVG 20010904//EN"
 "http://www.w3.org/TR/2001/REC-SVG-20010904/DTD/svg10.dtd">
<svg version="1.0" xmlns="http://www.w3.org/2000/svg"
 width="300.000000pt" height="169.000000pt" viewBox="0 0 300.000000 169.000000"
 preserveAspectRatio="xMidYMid meet">

<g transform="translate(0.000000,169.000000) scale(0.100000,-0.100000)"
fill="#000000" stroke="none">
<path d="M82 1338 c-7 -7 -12 -17 -12 -23 0 -5 -10 -15 -22 -20 -26 -11 -36
-58 -17 -81 6 -8 25 -14 42 -14 22 0 42 -10 69 -37 l37 -36 -19 -27 c-26 -37
-55 -106 -64 -152 -4 -24 -14 -39 -26 -43 -25 -8 -26 -25 -1 -25 15 0 20 -10
26 -56 4 -32 21 -83 40 -119 l33 -63 -33 -32 c-27 -26 -39 -31 -59 -26 -29 7
-66 -22 -66 -52 0 -20 29 -52 47 -52 6 0 13 -9 16 -21 3 -11 15 -23 27 -26 16
-4 18 -8 8 -14 -10 -7 -9 -9 5 -9 9 0 17 -6 17 -14 0 -16 46 -36 78 -34 18 2
22 7 18 24 -4 14 3 29 22 46 l27 26 224 0 224 1 56 -28 c31 -16 71 -32 89 -36
43 -9 91 11 103 42 8 23 11 23 144 23 135 0 136 0 205 -35 90 -45 123 -45 164
0 l32 35 124 0 c120 0 124 -1 174 -31 27 -17 67 -34 88 -37 33 -4 41 -1 70 32
l32 36 119 0 118 0 74 -44 c98 -60 162 -80 230 -73 62 6 146 45 190 88 30 28
33 29 137 29 107 0 123 5 112 34 -5 13 -22 16 -85 16 -43 0 -79 3 -79 6 0 3 5
15 11 26 11 20 12 21 24 4 12 -15 18 -16 56 -6 l43 12 -34 28 c-24 20 -37 25
-42 17 -11 -17 -10 0 4 44 6 22 17 40 25 40 7 1 16 3 21 4 4 2 16 6 28 10 l21
6 -20 42 c-11 23 -27 50 -35 59 -13 15 -13 22 2 52 20 42 20 50 1 86 -19 37
-64 41 -95 8 l-20 -22 0 22 c0 32 -47 31 -52 0 -2 -18 -10 -23 -33 -23 -27 0
-30 3 -27 29 7 63 70 152 155 216 16 12 20 12 27 -1 8 -11 15 -7 39 21 31 38
29 43 -26 55 -26 5 -33 3 -33 -8 0 -8 -12 -18 -27 -22 -75 -18 -178 -109 -214
-188 l-19 -42 0 70 c0 52 -5 78 -20 103 -60 98 -195 94 -247 -8 -22 -42 -23
-56 -23 -270 0 -194 2 -230 18 -260 24 -49 75 -80 129 -80 96 0 143 63 144
196 l0 79 21 -55 c15 -39 39 -73 84 -117 l62 -61 -24 -36 -25 -36 -207 0
c-166 1 -211 4 -226 15 -17 13 -18 15 -3 15 14 0 17 11 17 71 l0 70 -26 -20
c-36 -28 -79 -27 -109 4 -23 22 -25 32 -25 115 0 82 2 90 19 90 11 0 33 -11
49 -25 17 -14 33 -25 36 -25 3 0 6 36 6 81 l0 81 -31 -26 c-17 -14 -34 -26
-39 -26 -5 0 -15 -3 -24 -6 -14 -5 -16 5 -16 76 0 81 9 114 39 137 23 18 41
16 85 -8 21 -11 40 -19 42 -17 1 2 0 29 -3 61 l-6 57 -150 0 -150 0 19 -21
c16 -18 19 -39 21 -128 2 -81 0 -99 -7 -74 -9 29 -54 76 -80 85 -18 6 21 67
50 77 14 5 18 10 9 10 -8 1 -30 12 -49 26 -39 29 -62 31 -81 8 -8 -9 -27 -21
-43 -28 l-28 -12 26 -7 c14 -3 26 -12 26 -18 0 -6 7 -19 16 -29 15 -16 14 -19
-16 -34 -64 -33 -91 -126 -51 -177 16 -20 18 -32 11 -61 -6 -29 -5 -37 6 -37
10 0 12 -10 7 -45 -5 -38 -3 -45 11 -45 11 0 16 -9 16 -27 0 -16 3 -44 6 -64
6 -35 5 -37 -30 -50 -20 -7 -36 -19 -36 -26 0 -17 6 -16 65 3 44 16 50 16 75
0 21 -12 53 -16 120 -16 81 0 91 -2 80 -15 -10 -12 -42 -15 -165 -15 -145 0
-155 1 -196 25 -56 31 -83 31 -115 0 -24 -25 -28 -25 -179 -25 -102 0 -163 4
-182 13 -26 11 -22 12 47 17 l75 5 3 69 3 68 -30 -21 c-36 -26 -81 -27 -112
-2 -22 17 -24 29 -27 115 -4 90 -3 96 16 96 10 0 36 -11 56 -25 l36 -24 0 74
0 74 -33 -18 c-17 -11 -42 -22 -54 -26 -23 -6 -23 -5 -23 80 0 82 1 88 29 116
36 36 57 36 105 4 l37 -25 -3 67 c-3 57 -6 68 -20 67 -10 0 -103 -1 -208 -2
l-190 -2 0 -52 c0 -62 -9 -58 -18 9 -6 37 -12 49 -27 51 -11 1 -25 14 -32 27
l-11 25 1023 0 c1082 0 1056 -1 1039 44 -6 15 -126 16 -1448 16 -1108 0 -1445
-3 -1454 -12z m68 -13 c10 -12 10 -22 2 -39 -9 -21 -5 -28 34 -67 44 -43 44
-43 24 -63 -20 -20 -20 -20 -60 19 -30 29 -49 40 -72 40 -34 0 -55 23 -45 49
4 9 16 16 27 16 13 0 20 7 20 18 0 38 46 56 70 27z m648 3 c-6 -16 -628 -24
-628 -9 0 14 65 17 368 19 207 2 263 -1 260 -10z m2170 -5 c3 -10 -210 -13
-1042 -13 -925 0 -1046 2 -1046 15 0 13 120 15 1042 13 822 -2 1042 -6 1046
-15z m-2114 1 c9 -3 16 -14 16 -24 0 -12 9 -20 23 -22 15 -2 23 -11 25 -29 4
-34 -18 -52 -49 -40 -21 8 -30 3 -66 -32 -42 -40 -43 -40 -63 -22 l-21 19 41
41 c25 26 40 50 40 66 0 39 21 56 54 43z m-68 -45 c3 -6 -12 -30 -35 -53 l-41
-42 -72 35 c-67 34 -78 36 -168 36 -88 0 -101 -3 -164 -34 l-68 -33 -38 37
c-66 65 -65 65 275 65 209 0 306 -3 311 -11z m-179 -61 c74 -27 159 -107 195
-183 31 -66 37 -111 14 -102 -8 3 -32 11 -54 16 -31 9 -45 21 -70 60 -109 176
-358 165 -452 -19 -14 -27 -27 -39 -48 -43 -16 -3 -42 -9 -57 -13 -26 -7 -27
-6 -20 27 12 57 66 148 112 189 107 94 244 118 380 68z m2306 5 c9 -9 -13 -34
-24 -27 -15 9 -75 -33 -127 -91 -49 -53 -82 -123 -82 -172 0 -21 5 -23 45 -23
41 0 45 2 45 25 0 14 5 25 10 25 6 0 10 -11 10 -25 0 -18 5 -25 20 -25 11 0
20 4 20 9 0 14 30 41 45 41 39 0 62 -83 30 -110 -12 -10 -13 -7 -9 22 4 24 1
38 -10 47 -14 12 -20 10 -44 -12 -16 -15 -33 -27 -40 -27 -7 0 -12 -9 -12 -20
0 -11 -4 -20 -10 -20 -5 0 -10 9 -10 20 0 17 -7 20 -45 20 -39 0 -45 -3 -45
-21 0 -17 -5 -20 -32 -17 -32 3 -33 5 -36 51 -8 122 62 227 198 297 78 40 92
45 103 33z m-1939 -30 c3 -16 8 -46 12 -68 4 -22 9 -44 12 -49 10 -18 22 22
22 82 l0 62 48 0 48 0 -4 -177 c-2 -98 -8 -180 -13 -181 -5 -2 -7 -7 -4 -12 3
-4 -44 -9 -105 -9 l-110 -1 0 25 c0 17 6 25 18 25 16 1 16 1 0 11 -16 9 -18
27 -18 149 0 112 3 140 14 140 7 0 19 7 26 15 20 25 48 18 54 -12z m436 -13
c0 -38 -12 -52 -25 -30 -3 6 -24 10 -45 10 -30 0 -43 -6 -64 -31 -24 -28 -26
-38 -26 -125 l0 -94 28 0 c16 0 37 7 48 15 27 20 34 19 34 -9 0 -49 -8 -56
-45 -40 -48 20 -62 18 -69 -11 -5 -19 -13 -25 -35 -25 l-29 0 -4 173 c-2 94
-8 180 -12 190 -8 16 1 17 118 17 l126 0 0 -40z m880 -1 c0 -35 -2 -40 -17
-34 -62 26 -104 17 -132 -29 -17 -27 -21 -50 -21 -120 0 -86 0 -86 25 -86 15
0 39 7 55 15 l30 16 0 -41 c0 -22 -2 -40 -4 -40 -2 0 -17 7 -32 15 -46 24 -74
20 -74 -10 0 -21 -5 -25 -28 -25 l-29 0 -6 170 c-3 93 -11 179 -17 190 -10 20
-8 20 120 20 l130 0 0 -41z m202 31 c20 -6 48 -24 62 -41 23 -27 26 -39 26
-110 l0 -79 -40 0 -40 0 0 54 c0 79 -40 113 -74 64 -12 -17 -16 -50 -16 -140
l0 -118 -40 0 -40 0 0 144 c0 142 0 145 27 177 15 17 41 38 58 45 37 16 32 16
77 4z m-1623 -197 c1 -51 -3 -93 -7 -93 -5 0 -14 24 -21 54 -6 29 -26 75 -43
102 l-30 48 43 41 44 40 7 -50 c3 -27 7 -92 7 -142z m285 172 c9 -25 19 -456
12 -525 -7 -64 -19 -100 -31 -89 -11 11 -18 317 -10 472 7 145 14 181 29 142z
m-597 -80 c44 -19 99 -59 112 -83 8 -16 -6 -17 -195 -17 -112 0 -204 3 -204 7
0 14 91 86 122 95 49 16 124 15 165 -2z m1923 -20 c12 -15 10 -75 -4 -107 -7
-16 -1 -18 57 -18 l65 0 0 -65 1 -65 -66 0 c-58 0 -64 -2 -58 -17 33 -76 -9
-180 -45 -113 -10 19 -5 353 5 388 6 17 30 15 45 -3z m-620 -127 c-1 -35 -3
-40 -11 -25 -10 17 -5 67 6 67 3 0 5 -19 5 -42z m130 2 c0 -3 -7 -15 -15 -26
-13 -18 -14 -16 -14 26 0 42 1 44 14 26 8 -11 15 -23 15 -26z m-1222 -29 c79
-22 106 -41 60 -41 -13 0 -39 -3 -59 -6 -30 -5 -37 -3 -41 13 -7 28 -44 33
-247 33 -188 0 -245 -8 -265 -35 -11 -15 -22 -17 -72 -10 l-59 8 41 18 c79 36
187 48 379 45 151 -2 193 -6 263 -25z m1272 -155 c0 -153 -2 -176 -18 -196
-16 -19 -22 -21 -40 -11 -19 10 -22 20 -22 76 0 54 3 66 20 75 10 6 18 16 15
23 -14 47 -15 67 -1 67 10 0 14 10 12 35 -2 19 3 43 10 52 7 10 14 26 14 36 0
9 2 17 5 17 3 0 5 -78 5 -174z m-1335 124 c19 -16 19 -33 -1 -99 -27 -93 -132
-171 -230 -171 -88 0 -195 71 -229 152 -18 45 -20 104 -2 115 39 25 432 28
462 3z m133 -37 c-2 -14 -15 -19 -56 -21 -60 -4 -71 14 -14 23 20 4 42 8 47
10 21 7 26 4 23 -12z m25 -110 c-7 -165 -9 -169 -50 -134 l-32 26 31 63 c19
39 33 84 36 118 2 30 8 54 12 54 4 0 5 -57 3 -127z m-706 102 c0 -10 -8 -15
-20 -13 -30 4 -34 28 -4 28 15 0 24 -6 24 -15z m2601 -12 c2 -15 10 -23 23
-23 12 0 19 -7 19 -20 0 -12 7 -35 16 -52 15 -29 15 -34 0 -66 -16 -32 -18
-33 -35 -18 -40 37 -101 183 -83 201 4 3 18 5 32 3 17 -2 26 -10 28 -25z
m-2548 7 c0 -5 -9 -10 -20 -10 -11 0 -20 5 -20 10 0 6 9 10 20 10 11 0 20 -4
20 -10z m877 -310 c58 0 64 -2 53 -15 -17 -20 -201 -18 -208 3 -2 8 7 12 26
12 l31 0 -5 58 -4 57 21 -57 21 -58 65 0z m-883 67 c8 -13 4 -23 -22 -50 -22
-23 -32 -42 -32 -65 0 -20 -6 -35 -18 -41 -21 -11 -52 3 -52 25 0 8 -12 19
-26 24 -20 8 -25 16 -22 38 3 24 7 27 40 27 29 0 45 7 70 33 35 34 45 36 62 9z
m196 13 c0 -5 -4 -10 -10 -10 -5 0 -10 5 -10 10 0 6 5 10 10 10 6 0 10 -4 10
-10z m170 0 c0 -5 -7 -10 -15 -10 -8 0 -15 5 -15 10 0 6 7 10 15 10 8 0 15 -4
15 -10z m240 -19 c29 -25 32 -31 21 -45 -12 -14 -8 -16 39 -16 44 0 51 -3 48
-17 -2 -10 -16 -24 -31 -31 -33 -16 -91 -7 -84 13 3 7 -12 30 -34 51 -36 35
-38 39 -22 56 21 23 21 23 63 -11z m-360 9 c0 -5 -9 -10 -20 -10 -11 0 -20 5
-20 10 0 6 9 10 20 10 11 0 20 -4 20 -10z m40 0 c0 -5 -7 -10 -15 -10 -8 0
-15 5 -15 10 0 6 7 10 15 10 8 0 15 -4 15 -10z m40 0 c0 -5 -7 -10 -15 -10 -8
0 -15 5 -15 10 0 6 7 10 15 10 8 0 15 -4 15 -10z m-277 -44 c17 -13 16 -15 -9
-35 -25 -20 -74 -29 -74 -14 0 9 52 63 59 63 3 0 14 -7 24 -14z m187 -1 c0 -8
-7 -15 -16 -15 -14 0 -14 3 -4 15 7 8 14 15 16 15 2 0 4 -7 4 -15z m64 0 c4
-11 -2 -15 -24 -15 -20 0 -30 5 -30 15 0 9 9 15 24 15 13 0 26 -7 30 -15z m34
-3 c6 -18 -15 -14 -22 4 -4 10 -1 14 6 12 6 -2 14 -10 16 -16z m217 -12 c38
-40 24 -50 -31 -21 -35 19 -42 27 -33 37 17 21 32 17 64 -16z m-175 -14 c0 -8
-14 -26 -31 -40 -42 -36 -106 -36 -148 0 -17 14 -31 30 -31 35 0 4 42 10 93
12 50 1 98 4 105 5 6 1 12 -4 12 -12z m2055 -86 c-16 -26 -128 -38 -186 -19
-67 23 -52 29 70 29 76 0 120 -4 116 -10z"/>
<path d="M334 870 c-28 -11 -54 -48 -54 -76 0 -12 9 -33 21 -48 43 -55 139
-21 139 50 0 29 -31 74 -50 74 -4 0 -14 2 -22 4 -7 3 -23 1 -34 -4z"/>
<path d="M550 867 c-38 -19 -55 -61 -40 -98 15 -35 37 -49 79 -49 78 0 100
109 30 145 -34 18 -37 18 -69 2z"/>
<path d="M450 716 c-18 -22 -5 -48 22 -44 17 2 23 10 23 28 0 29 -26 38 -45
16z"/>
<path d="M1490 1231 c0 -5 7 -14 15 -21 22 -18 22 -573 1 -625 l-15 -35 80 0
80 0 -15 22 c-11 15 -16 45 -16 89 l0 66 41 7 c101 16 119 54 119 256 0 172
-10 203 -74 234 -37 17 -216 23 -216 7z m219 -25 c44 -23 51 -53 51 -216 l0
-150 -30 0 -29 0 -3 148 -3 147 -37 18 c-21 10 -42 16 -48 12 -6 -4 -10 -68
-10 -166 l0 -159 -30 0 -30 0 0 168 c0 92 -3 177 -6 190 -6 21 -4 22 70 22 47
0 88 -6 105 -14z m-39 -76 c18 -18 20 -33 20 -152 0 -139 -9 -168 -52 -168
-17 0 -18 11 -18 170 0 144 2 170 15 170 8 0 24 -9 35 -20z"/>
</g>
</svg>
