<?xml version="1.0" standalone="no"?>
<!DOCTYPE svg PUBLIC "-//W3C//DTD SVG 20010904//EN"
 "http://www.w3.org/TR/2001/REC-SVG-20010904/DTD/svg10.dtd">
<svg version="1.0" xmlns="http://www.w3.org/2000/svg"
 width="920.000000pt" height="1039.000000pt" viewBox="0 0 920.000000 1039.000000"
 preserveAspectRatio="xMidYMid meet">

<g transform="translate(0.000000,1039.000000) scale(0.100000,-0.100000)"
fill="#000000" stroke="none">
<path d="M4455 10299 c-60 -4 -144 -13 -185 -19 -82 -13 -417 -96 -520 -130
-103 -34 -282 -123 -377 -189 -88 -60 -223 -185 -264 -245 -13 -19 -47 -43
-92 -65 -92 -43 -177 -126 -201 -196 -9 -27 -24 -63 -33 -80 -9 -16 -39 -75
-68 -130 -54 -101 -70 -147 -102 -285 l-18 -75 -66 -35 c-36 -20 -95 -57 -131
-83 -46 -33 -84 -51 -131 -62 -90 -21 -107 -28 -142 -60 -16 -16 -50 -37 -75
-48 -25 -10 -56 -30 -70 -42 -14 -13 -69 -41 -124 -64 -278 -115 -471 -259
-587 -438 -87 -135 -117 -217 -125 -340 l-6 -98 -59 -78 c-69 -92 -136 -225
-150 -301 -19 -105 30 -293 101 -383 10 -13 26 -54 35 -93 11 -44 28 -84 47
-107 17 -21 48 -74 70 -118 27 -52 60 -99 97 -135 63 -61 181 -128 274 -155
41 -12 62 -24 74 -43 9 -15 24 -39 34 -53 11 -17 14 -31 8 -40 -15 -23 -10
-75 9 -98 28 -36 112 -53 287 -58 155 -5 162 -6 205 -33 67 -43 147 -77 223
-96 l69 -17 -7 -33 c-20 -107 -101 -298 -135 -319 -13 -8 -13 -51 0 -74 5 -10
23 -24 40 -31 26 -11 41 -10 98 5 147 39 287 120 409 238 l72 70 53 -19 c50
-18 58 -27 190 -203 76 -100 138 -184 138 -185 0 -1 -39 8 -87 20 -114 30
-193 30 -249 3 -51 -24 -74 -59 -103 -155 -20 -69 -23 -73 -90 -122 -81 -59
-121 -123 -121 -194 -1 -33 -7 -50 -30 -75 -32 -35 -50 -42 -50 -18 0 25 -63
87 -108 107 -67 30 -165 34 -241 9 -41 -14 -90 -21 -140 -21 -51 -1 -82 -5
-95 -15 -13 -9 -43 -15 -80 -15 -51 0 -68 -5 -106 -30 -25 -16 -52 -30 -61
-30 -9 0 -39 -15 -66 -34 -26 -18 -58 -36 -70 -40 -56 -18 -133 -122 -133
-179 0 -13 -13 -50 -29 -83 -39 -78 -55 -144 -88 -360 -23 -156 -27 -209 -27
-409 0 -252 13 -380 64 -640 49 -247 85 -378 132 -477 58 -121 107 -167 222
-205 71 -23 98 -26 221 -27 128 -1 151 2 265 32 154 41 234 77 296 134 56 52
74 90 74 160 0 45 7 65 44 126 24 40 46 69 49 65 2 -4 8 -30 12 -58 3 -27 18
-78 31 -112 14 -35 22 -67 19 -73 -7 -12 23 -175 37 -204 6 -10 27 -35 47 -56
20 -20 44 -48 54 -63 10 -15 40 -38 66 -52 27 -13 61 -35 77 -48 36 -30 86
-47 136 -47 63 0 176 30 206 54 45 38 65 45 165 55 53 5 100 12 104 14 13 8
220 -22 318 -45 207 -48 561 -189 850 -337 250 -129 341 -184 450 -273 l89
-73 12 -72 c23 -133 95 -250 166 -267 19 -4 37 -23 62 -64 49 -80 99 -102 232
-103 102 0 170 23 270 90 113 77 112 77 203 -15 96 -97 147 -193 163 -304 7
-57 20 -91 49 -141 67 -115 139 -271 139 -301 0 -44 26 -97 54 -110 15 -6 26
-14 26 -18 0 -18 72 -40 132 -40 56 0 77 6 159 46 111 54 220 138 260 203 25
39 29 52 23 86 -10 62 -41 113 -114 190 -37 38 -120 127 -185 197 -64 70 -128
134 -141 143 -13 8 -33 33 -43 54 -11 21 -47 65 -80 98 -49 50 -71 84 -124
194 -80 167 -85 183 -55 209 117 100 218 218 248 290 21 49 32 65 46 63 10 -1
78 -18 149 -38 154 -44 305 -53 361 -23 31 17 96 83 125 128 l17 25 66 -23
c118 -40 337 -154 488 -254 94 -62 112 -70 140 -64 79 16 91 83 33 180 -57 93
-216 307 -265 354 -199 195 -542 295 -899 264 -75 -7 -199 -13 -276 -13 -108
0 -156 -5 -210 -20 -38 -11 -80 -22 -91 -25 -15 -4 -48 10 -105 44 -46 27
-123 70 -171 96 -48 26 -90 51 -93 55 -3 5 2 17 12 26 13 14 27 16 72 10 236
-30 468 29 586 150 118 120 154 282 119 525 -4 31 -1 37 26 53 17 10 91 29
164 43 166 30 195 42 268 112 130 124 203 278 203 427 0 71 -4 88 -36 156 -43
89 -91 146 -169 199 -82 55 -243 134 -359 174 -100 35 -355 94 -520 121 -46 8
-107 21 -136 30 -48 15 -55 22 -90 83 -22 36 -54 87 -72 113 -18 27 -33 51
-33 54 0 3 39 52 86 108 47 56 102 129 122 161 20 32 60 79 87 104 171 156
359 364 499 554 40 55 65 79 84 84 114 24 241 90 339 177 29 27 73 52 113 66
148 53 224 110 272 204 17 34 56 86 88 117 99 98 144 225 122 345 -7 37 -9 98
-6 151 10 134 -33 273 -121 396 -19 26 -35 52 -35 56 0 5 16 20 36 35 20 14
74 61 119 106 95 91 154 194 163 280 5 58 -26 135 -87 216 l-39 50 -4 126 c-4
120 -5 129 -38 192 -49 95 -100 141 -196 177 -43 17 -84 30 -90 30 -7 0 -14
37 -18 98 -6 84 -11 103 -38 144 -38 61 -89 105 -154 135 -60 27 -170 53 -231
53 l-42 0 -34 73 c-54 117 -129 174 -307 232 -100 34 -189 38 -237 12 l-31
-17 -45 63 c-46 64 -171 190 -220 222 -16 10 -36 33 -45 50 -72 138 -124 209
-209 285 -71 62 -178 117 -256 130 -43 7 -74 21 -123 55 -105 73 -121 79 -204
78 -60 -1 -84 4 -122 23 -139 70 -533 102 -923 73z m480 -94 c210 -7 403 -50
464 -101 20 -17 36 -44 47 -82 27 -93 33 -103 33 -57 0 22 -8 60 -19 84 -11
24 -18 47 -14 50 3 3 25 6 50 5 48 -1 110 -29 192 -88 l52 -38 0 -65 c0 -40 4
-62 10 -58 6 3 10 31 10 62 l0 56 43 -6 c56 -8 163 -66 228 -125 29 -26 73
-79 98 -119 116 -182 111 -170 114 -249 1 -41 5 -74 8 -74 12 0 17 38 11 86
l-5 48 63 -50 c112 -88 192 -197 204 -279 5 -38 3 -43 -54 -104 -58 -62 -60
-63 -60 -35 0 16 -5 36 -10 44 -7 11 -10 -2 -10 -42 0 -61 -6 -79 -58 -176
l-34 -63 -32 21 c-61 40 -270 142 -395 192 -271 108 -542 173 -886 210 -187
20 -753 17 -935 -5 -175 -22 -406 -67 -555 -109 -203 -57 -510 -176 -621 -241
-86 -50 -96 -55 -143 -62 l-43 -7 7 43 c17 103 60 224 129 364 40 83 84 171
96 197 12 27 40 64 63 83 41 36 136 87 148 79 3 -2 0 -36 -8 -76 -7 -40 -12
-82 -10 -93 2 -12 6 -4 11 20 28 156 62 222 164 315 76 70 243 178 352 228
110 50 283 111 380 133 277 64 530 98 690 92 52 -1 154 -5 225 -8z m1888 -970
c31 -8 93 -33 138 -55 101 -51 109 -67 110 -218 1 -171 -53 -354 -196 -667
-37 -79 -149 -285 -155 -285 -3 0 -36 16 -73 36 -53 28 -74 46 -101 87 -41 66
-184 246 -248 314 -26 28 -48 56 -48 60 0 26 86 260 124 338 66 134 120 210
221 313 84 86 93 92 131 92 22 0 65 -7 97 -15z m-2598 -230 c84 -12 129 -13
190 -6 95 12 552 6 680 -9 357 -41 602 -101 880 -217 167 -70 245 -117 245
-146 0 -47 -13 -50 -86 -16 -136 62 -207 89 -327 125 -388 115 -633 154 -962
154 -104 0 -227 5 -272 11 -67 10 -111 9 -235 -4 -260 -28 -476 -32 -603 -12
-132 21 -257 15 -343 -16 -85 -31 -203 -58 -327 -75 -350 -47 -466 -83 -607
-189 -43 -32 -76 -48 -127 -59 -100 -23 -115 -30 -165 -80 -36 -35 -61 -49
-130 -71 -109 -35 -322 -138 -419 -204 -148 -100 -257 -219 -323 -353 -27 -54
-34 -64 -30 -39 16 91 142 282 244 369 112 96 267 185 428 246 40 15 79 35 89
45 9 11 43 29 77 42 33 12 76 38 96 57 38 36 77 52 125 52 19 0 72 28 152 80
193 125 236 138 465 147 130 5 156 9 248 39 68 23 121 34 160 34 40 0 93 12
177 40 129 43 223 51 334 30 44 -8 66 -6 144 15 111 29 90 28 222 10z m630
-134 c298 -9 422 -23 620 -66 202 -45 527 -150 635 -206 l55 -28 -55 -1 c-30
0 -73 -9 -95 -19 l-40 -18 -65 32 c-62 31 -308 101 -330 93 -6 -2 49 -20 122
-41 73 -21 160 -50 192 -65 l60 -28 -70 -46 c-63 -43 -137 -112 -146 -138 -2
-7 -38 6 -86 30 -76 38 -210 79 -309 94 -74 11 -47 -9 35 -25 77 -17 279 -88
315 -112 17 -11 20 -26 22 -98 2 -48 14 -133 29 -198 15 -62 25 -115 22 -118
-2 -2 -22 7 -43 20 -65 41 -278 145 -394 193 -160 65 -412 130 -629 160 -160
23 -205 25 -330 20 -214 -10 -308 -22 -489 -61 -198 -43 -354 -100 -661 -238
-274 -124 -345 -144 -455 -127 -96 14 -202 68 -270 136 -30 30 -60 54 -66 54
-15 0 -7 -52 22 -130 39 -108 156 -210 240 -210 18 0 30 -3 26 -6 -11 -12
-224 -95 -327 -128 -151 -49 -235 -60 -408 -53 -196 7 -287 29 -434 105 -46
23 93 -147 162 -199 164 -123 319 -173 522 -167 85 2 114 0 110 -8 -4 -7 -49
-60 -100 -119 -91 -104 -92 -106 -102 -80 -6 14 -10 39 -10 55 0 16 -4 32 -10
35 -13 8 -13 -66 0 -101 10 -26 7 -32 -39 -77 -33 -34 -54 -48 -65 -44 -22 9
-51 75 -72 165 -20 84 -39 97 -29 20 9 -67 29 -123 60 -170 l25 -37 -43 -34
c-125 -102 -325 -206 -476 -247 -33 -9 -41 -14 -32 -23 17 -17 318 -15 396 2
148 33 230 69 345 154 41 30 76 54 78 52 10 -9 -133 -335 -147 -335 -5 0 -25
18 -45 40 -39 43 -46 47 -46 26 0 -15 65 -76 81 -76 5 0 3 -13 -6 -30 -9 -16
-23 -30 -31 -30 -9 0 -49 32 -90 72 -41 39 -74 65 -74 58 0 -8 34 -47 75 -88
41 -40 75 -76 75 -79 0 -10 -73 -108 -128 -170 -31 -37 -63 -63 -74 -63 -44 0
-112 56 -139 115 -12 25 -31 36 -108 67 -51 20 -125 59 -164 86 -74 49 -167
152 -167 183 0 10 -18 38 -39 63 -26 30 -48 71 -66 125 -14 44 -44 106 -66
138 -87 129 -101 259 -42 386 38 79 88 157 142 218 30 35 39 55 45 99 26 206
166 412 372 549 98 65 286 157 423 207 57 20 115 48 130 62 45 42 106 72 177
87 37 8 79 23 93 35 141 114 317 173 601 200 72 7 155 25 265 58 155 46 164
47 290 47 76 0 152 -6 183 -14 62 -16 373 -7 526 14 50 7 127 11 171 9 44 -2
211 -8 370 -13z m2540 -24 c71 -33 140 -96 165 -151 20 -43 19 -110 -2 -236
-35 -205 -153 -426 -318 -594 l-89 -89 -83 6 c-87 7 -160 25 -239 59 -44 18
-47 22 -52 64 -2 25 -12 53 -21 63 -15 17 -12 27 58 157 142 264 251 539 271
684 9 63 27 70 155 67 79 -2 105 -7 155 -30z m-1226 -301 c43 -23 180 -173
249 -273 34 -50 62 -94 62 -97 0 -3 -22 -6 -48 -6 -57 0 -152 -43 -196 -89
-24 -25 -27 -35 -22 -64 10 -53 59 -113 116 -142 27 -14 55 -25 61 -25 7 0 36
16 66 36 73 49 150 74 223 74 54 0 62 -2 71 -24 18 -40 -21 -154 -65 -188 -54
-43 -108 -68 -196 -89 -154 -36 -265 -18 -335 55 -60 63 -131 219 -175 386
-10 36 -14 41 -22 27 -6 -12 -5 -34 6 -69 17 -59 14 -68 -15 -49 -12 7 -23 10
-26 7 -8 -8 7 -26 37 -45 18 -11 47 -54 85 -126 96 -185 140 -217 305 -223 96
-3 113 -1 203 28 71 23 109 41 137 66 l39 35 11 -38 c13 -49 60 -298 60 -324
0 -10 5 -19 10 -19 6 0 10 11 10 25 0 50 -32 242 -51 309 -13 42 -18 78 -14
95 7 26 8 26 26 -14 10 -22 30 -92 45 -155 26 -112 44 -158 44 -112 0 35 -30
171 -51 236 -11 32 -18 60 -16 62 2 3 24 -4 48 -14 60 -26 178 -52 233 -52 35
0 46 -4 51 -19 3 -11 22 -34 42 -51 19 -17 34 -32 32 -33 -2 -1 -38 -20 -80
-41 -70 -37 -197 -136 -174 -136 6 0 37 20 70 45 70 53 188 115 219 115 11 0
-22 -22 -74 -48 -53 -26 -127 -69 -165 -97 -73 -51 -220 -193 -211 -202 3 -3
40 27 82 66 88 82 214 168 317 216 111 51 109 51 130 1 22 -53 95 -129 151
-158 43 -22 115 -29 174 -16 l33 8 -53 -61 c-142 -164 -366 -290 -636 -359
-28 -7 -42 -16 -39 -24 3 -7 -18 -41 -45 -77 -67 -85 -148 -210 -185 -284 -38
-76 -119 -277 -132 -330 -9 -33 -17 -43 -45 -53 -46 -17 -121 -85 -153 -139
-14 -25 -32 -70 -40 -102 -27 -105 -30 -119 -37 -129 -3 -6 -45 -25 -94 -43
-70 -26 -103 -32 -169 -33 -102 -1 -111 5 -89 71 8 26 31 122 50 213 20 91 47
207 61 258 67 251 110 515 121 750 l7 152 -36 53 c-21 30 -79 91 -129 137
-160 145 -224 213 -230 245 -4 16 -4 61 -1 100 3 43 -1 113 -10 176 -25 162
-39 322 -31 355 21 89 116 189 235 248 77 39 123 45 168 22z m1533 -117 c77
-22 133 -65 156 -119 8 -19 17 -78 19 -131 6 -95 5 -98 -27 -155 -83 -148
-205 -280 -322 -350 -51 -31 -75 -38 -128 -42 -87 -5 -164 23 -215 79 l-36 40
45 37 c96 80 235 274 311 435 40 83 54 125 70 210 6 31 7 31 127 -4z m-1168
-323 c29 -30 79 -68 116 -87 l64 -34 -63 -7 c-63 -7 -164 -47 -222 -89 -35
-25 -62 -21 -119 17 -38 25 -80 92 -80 126 0 24 85 94 133 112 23 8 60 15 81
15 35 1 45 -5 90 -53z m1412 -147 c111 -135 106 -192 -29 -350 -116 -134 -199
-188 -303 -197 -111 -9 -205 42 -254 138 -11 22 -20 41 -20 44 0 2 29 6 65 8
58 3 66 1 71 -17 16 -57 121 -171 140 -152 3 3 -6 13 -20 22 -28 19 -106 129
-106 151 0 7 21 27 48 45 121 82 236 205 304 326 35 62 39 61 104 -18z m-3399
-275 c176 -115 428 -304 553 -416 134 -119 454 -471 533 -585 26 -38 27 -43
16 -87 -25 -101 14 -348 77 -489 25 -56 25 -60 10 -98 -23 -57 -20 -101 13
-179 l30 -69 -19 -38 c-11 -21 -30 -64 -44 -95 -39 -91 -222 -307 -381 -450
-220 -197 -481 -337 -737 -394 -47 -11 -119 -17 -203 -17 -109 0 -146 4 -227
26 -199 54 -386 153 -515 272 -97 89 -249 280 -415 520 -72 105 -150 215 -173
245 -78 103 -68 105 35 7 57 -53 107 -97 113 -97 5 0 -1 17 -14 38 -179 299
-294 618 -369 1031 -12 68 -30 310 -29 401 0 62 -1 64 55 -80 120 -312 342
-613 577 -782 32 -23 37 -10 6 18 -59 53 -188 275 -248 427 -37 93 -104 359
-126 500 -17 108 -19 377 -3 392 15 15 300 -156 588 -354 158 -108 544 -398
723 -543 39 -32 73 -56 75 -54 18 19 -397 856 -491 991 l-21 30 31 -25 c17
-14 80 -65 139 -113 123 -100 255 -189 394 -267 130 -73 543 -280 548 -275 10
10 -41 65 -370 397 -189 191 -327 337 -308 326 19 -12 99 -64 177 -114z m3212
-403 c89 -120 131 -229 131 -335 -1 -73 -6 -66 -51 64 -38 107 -93 213 -144
276 -38 46 -41 54 -23 72 15 15 26 6 87 -77z m-81 -6 c52 -58 80 -115 143
-291 55 -151 61 -178 62 -249 2 -125 -12 -157 -109 -254 -64 -64 -87 -95 -100
-133 -19 -57 -22 -60 -184 -133 -69 -32 -134 -66 -144 -77 -32 -34 -164 -116
-219 -136 -79 -30 -121 -37 -114 -21 3 8 17 40 30 73 22 51 32 62 78 87 28 16
76 47 105 69 74 56 200 178 191 186 -3 4 -43 -27 -87 -69 -73 -69 -192 -157
-233 -173 -15 -5 -15 -2 -1 47 9 30 13 66 9 86 -5 29 -1 38 30 71 33 34 91
130 83 137 -2 2 -29 -28 -59 -68 -68 -88 -91 -102 -154 -93 l-47 8 69 71 c68
71 120 143 110 153 -2 3 -20 -17 -40 -43 -34 -46 -149 -163 -161 -163 -3 0 10
25 30 55 60 95 112 213 120 272 10 82 -6 124 -67 172 -33 26 -46 42 -38 46 8
2 56 18 108 35 108 35 160 63 290 155 51 36 97 63 102 60 14 -9 11 -175 -6
-263 -9 -44 -24 -106 -35 -138 -24 -68 -25 -83 -5 -63 22 22 53 115 70 215 17
100 19 161 4 223 l-10 45 68 68 c37 37 70 68 74 68 4 0 21 -16 37 -35z m-1623
-207 c15 -11 40 -39 56 -61 25 -34 29 -49 29 -104 0 -34 -3 -63 -6 -63 -3 0
-19 11 -36 25 -28 24 -113 55 -150 55 -27 0 -22 18 16 56 18 18 31 35 29 38
-10 10 -54 -28 -77 -66 -22 -36 -79 -88 -99 -88 -32 0 52 183 96 211 43 26
107 25 142 -3z m-355 -187 l50 -73 -26 -47 c-43 -75 -49 -78 -63 -29 -29 101
-85 266 -103 303 -19 39 -18 39 36 -20 31 -33 79 -93 106 -134z m-3142 -814
l5 -90 -47 6 c-25 4 -64 16 -86 27 -45 23 -50 24 -50 10 0 -16 72 -47 128 -55
46 -6 52 -9 52 -31 0 -23 -3 -24 -62 -24 -42 0 -81 8 -119 23 -57 24 -149 84
-149 98 0 4 26 15 57 24 67 20 152 62 208 103 51 37 56 30 63 -91z m455 -260
c21 -30 37 -56 37 -60 0 -8 -99 28 -111 40 -7 7 24 73 34 73 2 0 20 -24 40
-53z m232 -639 c102 -37 170 -82 262 -174 98 -98 97 -109 -16 -226 -27 -29
-39 -48 -30 -48 18 0 79 62 108 110 l21 35 0 -53 c0 -64 -20 -116 -62 -159
l-32 -33 -50 48 c-128 122 -359 253 -440 251 l-41 -1 55 -13 c95 -23 246 -108
358 -201 90 -76 102 -89 102 -117 -1 -49 -34 -111 -90 -171 -46 -49 -54 -53
-79 -46 -50 14 -233 115 -360 198 -69 45 -127 79 -130 76 -17 -16 183 -142
382 -240 129 -65 131 -67 98 -139 -27 -60 -69 -105 -97 -105 -28 0 -242 79
-319 118 -27 13 -88 49 -134 79 -96 63 -120 65 -34 3 88 -63 267 -145 471
-215 18 -7 -19 -73 -69 -121 l-38 -37 -78 13 c-43 7 -115 26 -162 42 -94 33
-257 129 -265 156 -22 83 -11 128 50 201 23 28 27 43 31 118 4 87 5 88 47 133
44 47 55 72 76 172 8 42 18 63 38 78 141 108 137 104 160 182 20 70 46 107 82
121 26 10 102 -5 185 -35z m2135 7 c-7 -9 -15 -13 -18 -10 -3 2 1 11 8 20 7 9
15 13 18 10 3 -2 -1 -11 -8 -20z m-27 -50 c-7 -21 -13 -19 -13 6 0 11 4 18 10
14 5 -3 7 -12 3 -20z m-40 -150 c-9 -16 -225 -212 -288 -261 -22 -18 -49 -33
-60 -35 -10 -2 -33 -23 -50 -46 -16 -23 -34 -41 -40 -39 -23 6 -16 72 15 129
16 31 26 57 22 57 -12 0 -57 -91 -82 -165 -11 -32 -24 -61 -28 -65 -4 -3 -5
-21 -2 -40 l6 -35 16 50 c13 42 19 50 37 47 24 -4 61 23 61 43 0 16 29 41 59
50 13 4 67 45 120 92 53 47 109 94 124 105 l29 21 -18 -34 c-9 -19 -16 -50
-16 -69 2 -38 -13 -62 -83 -139 -94 -102 -141 -143 -199 -171 l-61 -29 42 -1
c39 0 42 -2 71 -53 17 -30 42 -61 56 -70 14 -10 44 -41 66 -70 22 -28 85 -101
140 -162 55 -60 100 -113 100 -117 0 -3 -25 8 -55 27 -31 18 -130 70 -222 115
-200 100 -232 129 -233 207 0 69 -18 78 -23 11 -3 -48 -3 -47 -5 17 -3 82 -22
72 -22 -11 0 -40 -4 -53 -17 -58 -10 -3 -23 -9 -30 -12 -9 -4 -8 8 3 46 8 28
13 59 11 68 -4 19 -37 -80 -37 -112 0 -15 -17 -31 -56 -55 -30 -18 -60 -43
-65 -54 -6 -12 -34 -36 -63 -54 -29 -18 -84 -61 -122 -95 -107 -98 -146 -130
-151 -124 -6 6 29 58 74 109 18 20 33 44 33 53 0 9 25 43 56 77 30 34 78 98
107 143 55 87 76 102 170 125 45 11 65 24 54 35 -3 3 -32 -2 -65 -10 -79 -21
-85 -21 -70 3 10 16 6 27 -20 68 -18 27 -32 55 -32 62 0 21 94 141 111 141 3
0 9 -14 13 -30 3 -17 17 -41 31 -54 14 -13 25 -28 25 -33 0 -6 7 -16 15 -23
19 -16 19 -11 0 34 -8 20 -20 36 -25 36 -13 0 -40 54 -40 80 0 46 105 140 156
140 11 0 37 -7 59 -15 52 -18 132 -19 184 0 58 20 197 135 164 135 -4 0 -7 28
-7 62 1 55 5 65 30 87 l29 24 3 -71 c2 -40 -1 -79 -5 -87z m-81 28 c-5 -80
-22 -93 -22 -17 0 56 5 74 19 74 3 0 4 -26 3 -57z m-42 -38 c0 -37 -4 -65 -10
-65 -6 0 -10 28 -10 65 0 37 4 65 10 65 6 0 10 -28 10 -65z m-40 -28 c0 -51
-3 -64 -20 -75 -19 -12 -20 -10 -20 51 0 58 11 87 32 87 4 0 8 -28 8 -63z
m-69 -100 c-5 -5 -17 -7 -27 -3 -14 5 -15 15 -10 58 4 31 14 57 24 64 15 11
17 7 20 -48 2 -34 -1 -65 -7 -71z m-52 43 c-3 -57 -19 -69 -19 -14 0 21 -4 33
-10 29 -5 -3 -10 -19 -10 -36 0 -19 -5 -29 -15 -29 -10 0 -15 10 -15 30 0 23
7 35 33 50 17 11 33 20 35 20 2 0 2 -22 1 -50z m-92 -32 c-3 -7 -5 -2 -5 12 0
14 2 19 5 13 2 -7 2 -19 0 -25z m-17 7 c0 -9 -6 -12 -15 -9 -8 4 -12 10 -9 15
8 14 24 10 24 -6z m-1202 -90 c66 -20 110 -57 118 -99 6 -33 -9 -76 -82 -233
-25 -55 -41 -73 -24 -27 14 36 13 39 -17 75 -29 34 -114 79 -150 79 -13 0 -23
2 -23 5 0 13 57 144 73 168 13 20 15 27 5 28 -14 0 20 17 38 18 6 1 33 -6 62
-14z m991 -2 c-48 -64 -69 -74 -69 -33 0 19 42 49 69 50 11 0 11 -3 0 -17z
m-2251 -38 c42 -35 69 -106 77 -205 4 -47 4 -82 1 -79 -3 3 -20 34 -38 70 -32
62 -34 64 -93 82 -33 9 -97 23 -143 30 l-82 12 22 45 c28 53 62 68 160 69 57
1 71 -3 96 -24z m1566 -10 c58 -20 143 -41 188 -47 46 -6 90 -13 98 -15 19 -6
-66 -50 -202 -104 -57 -22 -127 -54 -157 -70 -30 -16 -56 -27 -59 -24 -2 2 6
36 18 76 23 78 28 165 10 198 -6 12 -9 21 -6 21 2 0 52 -16 110 -35z m-1858
-8 c3 -3 2 -21 -1 -41 -6 -32 -11 -36 -44 -41 -20 -3 -64 -11 -99 -19 -62 -13
-62 -13 -56 8 22 70 78 109 147 103 26 -2 50 -7 53 -10z m3150 -104 c56 -54
114 -120 129 -146 14 -26 88 -142 164 -257 132 -200 139 -212 150 -282 19
-122 30 -266 31 -395 0 -117 -4 -134 -26 -115 -5 5 -35 19 -68 32 -50 20 -60
29 -76 65 -19 44 -43 56 -140 71 -35 5 -56 18 -95 54 -71 66 -88 73 -190 76
-53 1 -109 9 -135 18 -61 23 -220 62 -305 75 -89 14 -369 29 -460 23 -82 -4
-90 -17 76 130 98 86 137 116 212 162 15 9 27 23 27 31 0 9 39 41 87 71 l86
56 33 -16 c18 -8 40 -26 49 -40 10 -15 79 -55 188 -110 95 -47 214 -112 266
-146 52 -33 98 -60 103 -60 16 0 7 16 -26 45 -42 38 -242 263 -279 315 -15 21
-45 52 -66 69 -36 28 -79 106 -67 119 3 3 60 6 125 6 66 1 116 5 112 9 -5 5
-60 9 -122 8 l-113 0 46 42 c26 23 74 75 108 115 33 39 64 72 68 72 4 0 53
-44 108 -97z m-3346 70 c0 -5 -10 -26 -23 -47 -18 -32 -32 -43 -74 -57 -52
-18 -53 -18 -53 2 0 25 16 57 43 87 15 16 32 22 64 22 24 0 43 -3 43 -7z
m-168 -89 c-11 -30 -28 -52 -50 -66 -44 -27 -59 -14 -42 36 13 41 53 76 86 76
l23 0 -17 -46z m495 15 c45 -8 68 -17 78 -33 14 -19 14 -21 -7 -28 -13 -3 -42
-6 -64 -7 -114 -3 -503 -115 -663 -191 l-83 -40 6 27 c15 64 182 182 324 228
151 49 293 64 409 44z m2233 -10 c0 -19 -34 -69 -47 -69 -21 0 -22 16 -3 48
19 31 50 44 50 21z m-2846 -70 c-5 -37 -13 -49 -46 -73 -21 -15 -41 -26 -44
-23 -9 9 15 89 33 109 16 18 54 39 61 33 1 -1 -1 -22 -4 -46z m763 36 c26 -18
55 -93 79 -201 24 -111 29 -571 8 -814 -15 -171 -23 -659 -15 -850 4 -80 2
-102 -15 -135 -21 -43 -75 -87 -60 -50 21 54 27 129 16 198 -19 122 -24 358
-12 559 29 476 37 666 36 843 -1 199 -15 290 -65 418 -20 51 -12 60 28 32z
m1023 -94 c-30 -57 -94 -130 -105 -120 -3 3 14 26 38 50 23 25 54 70 67 101
14 31 26 50 28 43 2 -8 -11 -41 -28 -74z m157 64 c64 -32 87 -65 79 -113 -8
-53 -20 -59 -58 -27 -41 35 -88 55 -128 55 -36 0 -37 6 -8 65 26 54 42 56 115
20z m-1220 -22 c3 -7 -19 -14 -64 -18 -169 -16 -513 -117 -700 -205 -102 -48
-124 -52 -80 -13 52 46 135 81 352 149 98 30 319 86 385 97 44 8 103 2 107
-10z m2168 -10 c51 -59 41 -93 -41 -129 -30 -13 -54 -27 -54 -30 0 -6 33 0 64
12 9 3 16 1 16 -5 0 -21 -99 -159 -160 -225 -33 -35 -60 -72 -60 -83 0 -11
-10 -28 -21 -39 -12 -10 -43 -51 -69 -89 -26 -39 -54 -76 -62 -82 -15 -13
-207 -57 -215 -50 -2 3 25 42 61 88 35 46 98 131 138 188 130 184 192 264 282
369 49 56 91 102 93 102 2 0 15 -12 28 -27z m-2141 -71 c8 -26 18 -67 21 -92
4 -25 9 -53 11 -62 5 -16 -2 -18 -48 -18 -88 0 -393 -61 -528 -105 -41 -13
-120 -38 -175 -56 -55 -18 -124 -43 -154 -55 -29 -13 -55 -24 -57 -24 -4 0 -2
16 17 122 l11 67 77 39 c90 47 170 77 346 133 123 39 442 111 457 103 3 -3 13
-26 22 -52z m1143 -13 c41 -20 93 -74 93 -96 0 -6 -14 -16 -30 -23 -26 -11
-37 -10 -71 5 -58 26 -89 59 -89 93 0 16 3 32 7 35 12 13 46 7 90 -14z m743
-38 c0 -24 -47 -81 -66 -81 -21 0 -17 43 7 74 24 31 59 35 59 7z m-899 -91
c-41 -79 -134 -211 -169 -240 -32 -26 -96 -49 -107 -39 -8 9 84 131 132 174
29 25 62 63 74 83 12 20 36 52 53 70 29 31 31 32 34 12 2 -11 -6 -38 -17 -60z
m-71 31 c0 -10 -9 -29 -20 -42 l-19 -24 16 43 c18 46 23 52 23 23z m105 -196
c12 -78 25 -128 47 -172 l31 -63 -39 -45 c-22 -26 -54 -65 -72 -88 -19 -23
-37 -43 -42 -45 -4 -2 -23 10 -42 25 -32 28 -136 103 -267 194 l-64 44 104 8
c74 6 111 13 129 26 29 20 80 85 148 186 26 38 48 63 49 55 1 -8 9 -64 18
-125z m-990 105 c-3 -5 -30 -10 -60 -10 -130 0 -700 -149 -857 -224 -27 -13
-48 -19 -48 -14 0 21 193 94 422 159 240 68 563 121 543 89z m3 -141 l3 -117
-63 -5 c-35 -3 -97 -10 -138 -17 -96 -15 -551 -130 -688 -175 l-105 -34 7 102
c4 56 9 103 10 105 2 1 47 20 99 42 137 55 419 135 626 175 97 18 185 36 196
38 49 11 50 9 53 -114z m1641 107 c25 -29 -18 -84 -54 -70 -21 8 -30 51 -15
69 16 19 54 19 69 1z m-1519 -125 c0 -5 3 -23 6 -40 5 -24 3 -31 -10 -31 -12
0 -16 10 -16 40 0 22 5 40 10 40 6 0 10 -4 10 -9z m-120 -140 c0 -16 -11 -19
-83 -24 -105 -7 -387 -70 -667 -149 -285 -80 -258 -74 -240 -56 37 38 693 216
885 241 79 10 105 8 105 -12z m425 -17 c28 -20 92 -60 142 -90 105 -62 156
-102 147 -115 -3 -5 -24 -9 -48 -9 -100 0 -222 -57 -258 -120 -20 -34 -38 -51
-38 -36 0 3 -16 64 -35 136 -31 117 -33 133 -21 153 8 12 18 43 21 70 9 58 22
60 90 11z m-435 -58 c0 -23 -3 -71 -6 -105 -7 -59 -8 -61 -35 -61 -68 0 -656
-146 -843 -210 -49 -16 -91 -29 -92 -27 -2 2 -5 46 -6 99 -2 65 1 101 9 109
37 37 737 210 966 238 4 1 7 -19 7 -43z m190 -45 c5 -21 26 -108 44 -194 19
-86 40 -165 45 -176 8 -14 46 -28 158 -55 82 -20 169 -39 195 -42 37 -5 49
-11 54 -28 3 -11 23 -50 44 -86 33 -58 38 -75 43 -157 6 -76 4 -99 -10 -128
-11 -22 -22 -34 -31 -30 -41 15 -225 46 -305 51 -123 7 -257 -6 -268 -26 -4
-8 -22 -46 -40 -85 l-33 -70 -7 195 c-5 130 -3 258 6 385 8 105 17 253 21 330
7 144 10 155 51 155 17 0 25 -8 33 -39z m2185 -34 c156 -34 326 -83 341 -99
12 -13 36 -79 31 -84 -1 -2 -63 12 -137 31 -168 42 -290 58 -386 49 -120 -11
-96 -24 44 -24 128 0 166 -6 397 -60 81 -18 115 -37 115 -61 0 -5 -157 -8
-348 -8 -417 -1 -603 -14 -926 -66 -77 -13 -92 -13 -124 1 -20 8 -32 18 -26
23 15 13 318 97 464 127 74 16 125 30 113 32 -41 6 -331 -59 -480 -107 -137
-44 -183 -52 -183 -30 0 24 224 90 559 165 14 3 20 9 15 14 -9 9 -284 -51
-408 -89 -38 -12 -72 -21 -77 -21 -5 0 -9 14 -9 32 0 30 23 68 42 68 5 0 24
15 41 33 36 38 115 68 242 91 61 12 140 15 330 12 224 -3 262 -6 370 -29z
m480 -93 c72 -34 146 -194 252 -543 104 -345 184 -534 263 -621 30 -33 31 -33
14 -5 -10 17 -33 55 -51 85 -50 86 -119 258 -174 439 -77 253 -119 379 -151
459 -17 40 -28 75 -26 77 11 11 135 -27 150 -46 28 -33 104 -281 143 -466 74
-348 88 -410 112 -485 13 -43 28 -78 34 -78 6 0 8 8 5 18 -23 77 -52 199 -90
381 -25 117 -64 283 -87 368 -23 84 -39 156 -36 159 3 3 25 -3 50 -14 55 -25
63 -44 142 -343 31 -118 76 -274 101 -348 24 -73 44 -135 44 -137 0 -3 -11 3
-25 12 -15 10 -25 12 -25 5 0 -13 68 -58 225 -146 156 -87 259 -156 248 -165
-12 -11 -134 -30 -189 -30 -67 0 -108 13 -188 60 -38 22 -71 39 -73 36 -9 -8
82 -70 135 -92 86 -36 247 -29 352 15 86 36 282 71 400 71 60 0 121 -5 137
-11 l28 -11 -51 -17 c-57 -19 -94 -44 -142 -94 -29 -30 -37 -50 -57 -147 -29
-136 -60 -232 -85 -262 l-18 -22 -43 35 c-75 62 -174 104 -304 130 -97 19
-202 58 -325 120 -201 102 -249 136 -302 214 -111 164 -208 403 -268 660 -71
306 -142 535 -209 677 l-37 78 44 0 c24 0 59 -7 77 -16z m-2867 -49 c-2 -2
-25 -6 -53 -9 -164 -21 -702 -156 -837 -211 -71 -29 -78 -30 -78 -12 0 8 17
21 38 30 74 33 757 213 907 239 13 2 21 -3 23 -15 2 -10 2 -20 0 -22z m-5
-147 c-2 -73 -6 -139 -8 -145 -3 -7 -20 -13 -39 -13 -153 0 -653 -107 -835
-179 -29 -12 -55 -20 -57 -19 -7 7 -25 218 -20 227 17 26 394 133 730 207 110
24 201 46 204 49 3 3 11 5 18 5 9 0 11 -33 7 -132z m928 103 c19 -16 51 -36
71 -44 41 -17 106 -99 132 -166 9 -24 20 -74 23 -110 4 -42 13 -75 25 -91 14
-18 18 -33 13 -60 -4 -25 2 -59 19 -112 18 -53 26 -98 26 -147 0 -60 -5 -78
-36 -138 -27 -52 -34 -75 -29 -98 18 -85 17 -102 -2 -116 -11 -8 -25 -36 -32
-63 -23 -94 -68 -156 -113 -156 -9 0 -32 -14 -50 -31 -40 -37 -70 -53 -125
-68 -102 -28 -183 -7 -183 45 0 14 11 59 25 101 43 126 15 91 -33 -42 -10 -30
-25 -51 -35 -53 -26 -5 -72 33 -92 77 l-18 40 29 37 c53 67 57 79 7 27 l-50
-53 -20 23 c-27 28 -44 91 -41 153 1 35 -7 67 -28 114 -25 56 -29 76 -28 148
1 48 7 89 14 97 16 20 242 21 315 2 l50 -13 6 -53 c4 -28 18 -75 32 -102 l25
-51 -48 -76 c-27 -43 -51 -88 -55 -102 -8 -31 -5 -26 68 88 l59 92 -29 57
c-21 45 -28 72 -28 120 0 59 12 94 23 63 7 -22 107 -120 121 -120 7 0 -12 22
-42 50 -30 27 -57 59 -60 70 -5 20 -5 20 21 1 64 -44 73 -40 21 10 -53 51 -57
58 -63 113 -4 32 -5 61 -2 63 2 2 25 -12 51 -31 48 -37 65 -44 65 -26 0 6 -7
10 -15 10 -45 0 -184 193 -201 279 -5 23 -12 30 -28 29 -11 -1 -56 7 -99 16
-93 22 -103 38 -66 113 30 60 86 89 196 101 148 17 175 15 214 -17z m1895
-136 c9 -25 14 -48 11 -52 -4 -3 -91 1 -194 11 -104 9 -240 18 -303 20 -162 4
-500 -11 -662 -29 -105 -12 -142 -13 -162 -4 -49 23 -27 30 177 55 215 28 474
41 799 43 l316 1 18 -45z m-61 -67 l90 -13 22 -63 c37 -102 53 -182 37 -182
-7 0 -63 18 -124 40 -62 22 -169 56 -239 75 -69 19 -139 39 -156 44 -63 21
-301 62 -442 77 -92 9 -192 13 -263 10 -98 -4 -106 -3 -52 5 147 22 259 27
637 24 263 -2 431 -8 490 -17z m630 -61 c4 -17 15 -48 24 -67 9 -19 15 -46 13
-60 -3 -17 -12 1 -33 65 -31 98 -34 109 -20 100 5 -3 13 -20 16 -38z m-3405
-31 c0 -10 -20 -16 -67 -20 -241 -25 -645 -120 -800 -188 -41 -18 -63 -17 -63
1 0 5 8 11 18 14 9 3 49 18 87 32 166 63 640 166 798 174 17 1 27 -4 27 -13z
m-12 -153 l-3 -117 -40 -3 c-152 -13 -545 -101 -734 -164 -46 -16 -86 -27 -89
-25 -4 5 -23 90 -36 167 l-6 36 61 28 c75 33 142 53 384 111 168 40 376 79
443 83 22 1 23 0 20 -116z m2 -166 c0 -26 48 -13 -460 -120 -356 -75 -400 -82
-400 -64 0 27 383 131 665 182 175 31 195 31 195 2z m-7 -54 c3 -5 8 -63 12
-129 l7 -122 -33 -7 c-19 -4 -72 -22 -119 -40 -148 -58 -492 -145 -570 -145
-36 0 -39 2 -67 63 -41 86 -77 197 -67 207 5 4 43 13 84 20 83 12 723 149 729
156 7 6 19 5 24 -3z m27 -282 c0 -4 -35 -22 -77 -39 -192 -75 -436 -137 -573
-146 l-95 -6 110 21 c146 26 299 67 475 128 158 54 160 55 160 42z m0 -53 c0
-7 -7 -34 -17 -60 -16 -45 -19 -48 -92 -76 -184 -73 -365 -93 -505 -57 -91 24
-96 31 -24 38 139 13 422 84 553 140 69 29 85 32 85 15z m5032 -248 c36 -6 92
-19 123 -31 l57 -21 -52 -18 c-70 -24 -92 -49 -129 -150 -63 -167 -106 -204
-234 -197 -42 2 -79 6 -82 9 -3 3 1 20 9 39 8 19 17 57 21 84 3 28 8 55 10 62
5 16 101 -7 165 -40 36 -19 50 -22 50 -12 0 17 -77 54 -155 75 l-60 15 -8 54
c-10 71 -27 104 -57 113 -14 4 -47 14 -75 23 -47 14 -38 14 150 9 110 -3 230
-9 267 -14z m-331 -59 c22 -17 23 -26 24 -132 0 -96 -3 -121 -22 -161 -18 -40
-25 -46 -45 -41 -53 12 -156 48 -219 77 l-67 31 17 66 c22 89 40 112 112 148
76 38 162 43 200 12z m659 -74 c80 -40 89 -48 163 -142 100 -129 198 -267 193
-272 -2 -2 -46 23 -98 56 -126 79 -373 202 -475 235 -46 15 -83 31 -83 35 0
19 24 77 38 94 21 24 100 47 142 41 19 -2 73 -23 120 -47z m-1423 -283 c105
-28 200 -70 217 -97 8 -12 6 -21 -8 -35 -16 -18 -16 -23 -2 -57 9 -21 16 -39
16 -40 0 -2 -15 -12 -34 -23 l-35 -21 -3 22 c-2 16 -10 5 -27 -38 -13 -33 -37
-77 -53 -98 -34 -44 -61 -104 -53 -117 7 -12 -29 -97 -53 -123 -9 -11 -69 -45
-132 -77 -63 -32 -153 -77 -199 -100 -73 -37 -96 -44 -161 -48 -104 -6 -129 8
-170 93 -28 58 -50 83 -50 55 0 -22 -44 -8 -75 23 -34 34 -58 95 -71 182 l-7
47 34 -17 c44 -23 150 -15 242 18 67 24 67 24 67 4 0 -28 13 -12 34 41 27 70
83 150 151 218 45 43 73 83 94 128 16 36 35 66 41 66 6 0 15 -11 22 -24 17
-39 33 -38 67 5 18 21 36 39 41 39 4 0 52 -12 107 -26z m126 -552 c74 -160
173 -315 210 -328 10 -3 32 -35 47 -70 18 -40 35 -64 45 -64 18 0 108 -81 166
-151 l39 -47 -55 -27 c-65 -31 -164 -104 -199 -146 l-25 -29 -47 87 c-26 49
-60 112 -75 141 -16 28 -40 86 -54 127 -27 83 -87 170 -202 295 -49 53 -64 75
-53 78 50 16 120 133 120 202 0 27 20 55 30 43 4 -5 28 -54 53 -111z m174
-802 c24 -52 37 -88 29 -80 -24 25 -126 222 -126 244 0 27 36 -34 97 -164z
m306 3 c-44 -43 -86 -93 -94 -110 -13 -31 -17 -33 -66 -33 -32 0 -53 4 -53 11
0 26 128 137 199 172 40 20 78 37 84 37 5 0 -26 -35 -70 -77z m158 7 c10 -6
19 -15 19 -19 0 -12 -130 -111 -146 -111 -17 0 -17 -1 -4 -36 9 -24 9 -25 -4
-14 -12 9 -23 9 -47 1 -18 -6 -35 -9 -38 -6 -20 20 99 153 162 180 39 17 35
17 58 5z m34 -50 c-3 -5 -11 -10 -16 -10 -6 0 -7 5 -4 10 3 6 11 10 16 10 6 0
7 -4 4 -10z m25 -30 c0 -11 -4 -20 -9 -20 -14 0 -23 18 -16 30 10 17 25 11 25
-10z m-75 -10 c-10 -11 -20 -18 -23 -15 -7 6 18 35 31 35 5 0 2 -9 -8 -20z
m49 -25 c5 -14 -17 -45 -33 -45 -5 0 -15 7 -22 16 -11 14 -10 18 6 30 24 18
41 18 49 -1z m19 -65 c-79 -78 -278 -190 -314 -178 -14 5 62 53 105 68 19 6
40 18 47 26 7 9 30 24 50 35 21 10 60 41 86 67 41 41 48 46 51 29 2 -12 -8
-31 -25 -47z m-113 50 c0 -9 -32 -30 -46 -30 -4 0 1 9 11 20 19 21 35 26 35
10z m37 -35 c6 -18 -23 -44 -49 -45 -28 0 -32 22 -7 41 29 23 48 24 56 4z
m-151 -46 c-15 -12 -30 -18 -34 -14 -9 8 26 35 46 35 9 0 4 -8 -12 -21z m-156
1 c-20 -13 -50 -13 -50 0 0 6 15 10 33 10 24 0 28 -3 17 -10z m222 -2 c8 -21
-2 -38 -34 -54 -24 -12 -32 -13 -45 -3 -13 12 -12 15 7 31 12 10 28 18 36 18
8 0 14 5 14 10 0 14 17 12 22 -2z m-158 -17 c3 -4 -13 -14 -35 -20 -23 -7 -47
-15 -55 -18 -8 -3 -14 1 -14 11 0 27 90 50 104 27z m26 -73 c-34 -31 -83 -37
-113 -14 -17 13 -17 15 5 30 13 9 40 19 61 23 21 3 41 12 44 21 5 11 9 9 19
-9 12 -22 11 -26 -16 -51z"/>
<path d="M5282 9850 l1 -95 7 67 c5 37 5 80 0 95 -6 19 -8 -2 -8 -67z"/>
<path d="M5196 9788 c-3 -7 -7 -29 -10 -48 -7 -44 9 -19 17 28 6 31 0 45 -7
20z"/>
<path d="M5470 9690 c0 -35 2 -61 5 -59 7 8 9 108 2 116 -4 3 -7 -22 -7 -57z"/>
<path d="M3516 9684 c-3 -9 -8 -41 -11 -72 -4 -46 -3 -50 4 -22 11 45 21 110
16 110 -1 0 -6 -7 -9 -16z"/>
<path d="M6180 9558 c0 -13 5 -30 10 -38 7 -11 10 -5 10 23 0 20 -4 37 -10 37
-5 0 -10 -10 -10 -22z"/>
<path d="M5679 9463 l5 -108 7 70 c8 70 3 145 -9 145 -4 0 -5 -48 -3 -107z"/>
<path d="M3331 9466 c-13 -52 -13 -152 -1 -181 6 -13 9 13 9 77 1 53 5 108 11
122 5 14 6 26 1 26 -5 0 -14 -20 -20 -44z"/>
<path d="M5198 9471 c-5 -18 -8 -59 -7 -90 l1 -56 9 45 c5 25 8 65 7 90 -3 45
-3 45 -10 11z"/>
<path d="M5370 9416 c0 -37 4 -66 10 -66 6 0 10 26 10 59 0 33 -4 63 -10 66
-6 4 -10 -18 -10 -59z"/>
<path d="M3776 9445 c-3 -9 -5 -51 -5 -93 l2 -77 8 90 c8 90 7 109 -5 80z"/>
<path d="M6321 9420 c1 -19 5 -48 9 -65 7 -26 8 -24 9 20 0 28 -4 57 -9 65 -7
11 -9 6 -9 -20z"/>
<path d="M4476 9418 c-3 -13 -5 -43 -5 -68 1 -41 2 -39 10 20 8 66 6 89 -5 48z"/>
<path d="M5017 9391 c-4 -18 -7 -48 -6 -65 1 -29 1 -29 10 9 6 22 8 51 7 65
-3 22 -4 21 -11 -9z"/>
<path d="M6113 9349 c4 -30 7 -81 8 -114 1 -53 2 -56 10 -30 11 36 1 183 -14
192 -7 4 -8 -12 -4 -48z"/>
<path d="M3005 9349 c-7 -33 -9 -58 -5 -104 2 -29 5 -17 10 40 8 80 6 108 -5
64z"/>
<path d="M5561 9325 c0 -16 4 -50 8 -75 l8 -45 1 55 c0 30 -3 64 -8 75 -7 17
-9 16 -9 -10z"/>
<path d="M3526 9308 c-10 -47 -15 -142 -7 -128 10 17 24 150 16 150 -2 0 -7
-10 -9 -22z"/>
<path d="M5823 9172 c1 -46 5 -75 8 -65 10 24 9 91 -1 123 -5 16 -7 -5 -7 -58z"/>
<path d="M3175 9158 c-4 -31 -5 -63 -2 -70 2 -7 8 13 12 44 4 31 5 63 2 70 -2
7 -8 -13 -12 -44z"/>
<path d="M6261 9103 c1 -69 4 -99 9 -83 12 37 12 178 0 185 -6 4 -10 -32 -9
-102z"/>
<path d="M2926 9169 c-9 -47 -7 -97 4 -104 6 -4 10 20 10 64 0 77 -4 89 -14
40z"/>
<path d="M6081 9130 c-1 -14 -4 -50 -7 -80 -4 -30 -3 -52 1 -48 13 13 23 87
15 121 -7 28 -8 29 -9 7z"/>
<path d="M3045 9094 c-4 -22 -9 -47 -12 -56 -2 -10 0 -18 5 -18 11 0 28 98 19
107 -3 3 -9 -12 -12 -33z"/>
<path d="M2813 8955 c0 -27 2 -38 4 -22 2 15 2 37 0 50 -2 12 -4 0 -4 -28z"/>
<path d="M6426 8589 c3 -5 11 -9 19 -9 32 0 181 -54 227 -82 27 -17 51 -28 54
-25 8 7 -76 55 -137 78 -67 26 -171 50 -163 38z"/>
<path d="M6380 8526 c0 -2 33 -14 73 -26 79 -24 150 -60 242 -125 80 -56 94
-63 70 -36 -25 29 -115 90 -180 123 -68 35 -205 77 -205 64z"/>
<path d="M6420 8441 c0 -13 137 -82 202 -102 32 -9 58 -14 58 -10 0 5 -33 17
-72 29 -40 12 -99 37 -130 56 -32 19 -58 31 -58 27z"/>
<path d="M4030 8763 c-25 -3 -49 -8 -53 -12 -9 -9 139 -2 198 9 34 7 30 8 -30
7 -38 0 -90 -2 -115 -4z"/>
<path d="M4550 8730 c-14 -4 34 -5 105 -2 114 4 323 -9 395 -25 17 -4 22 -2
15 5 -23 24 -448 43 -515 22z"/>
<path d="M3608 8711 c-53 -9 -101 -20 -105 -25 -4 -5 8 -6 27 -3 19 3 73 11
120 18 47 7 89 16 95 21 13 11 -24 9 -137 -11z"/>
<path d="M5700 8686 c107 -31 180 -59 249 -97 29 -17 55 -28 58 -26 2 3 -24
21 -59 40 -71 40 -220 92 -288 101 -30 4 -17 -2 40 -18z"/>
<path d="M4155 8679 c-115 -6 -242 -25 -232 -36 3 -2 38 0 79 6 40 6 124 13
186 17 61 4 112 10 112 14 0 3 -6 6 -12 6 -7 0 -67 -4 -133 -7z"/>
<path d="M3127 8655 c-74 -26 -309 -136 -303 -142 2 -2 54 20 117 48 63 29
149 64 192 79 43 15 81 31 84 34 12 12 -23 4 -90 -19z"/>
<path d="M3203 8590 c-94 -32 -279 -118 -271 -125 3 -3 36 9 74 27 38 17 123
53 189 79 132 53 137 64 8 19z"/>
<path d="M4437 8611 c-20 -4 -39 -10 -41 -12 -3 -2 111 -4 252 -4 226 -1 270
-3 362 -23 58 -12 112 -22 120 -22 37 1 -21 20 -125 40 -88 18 -153 23 -320
26 -115 1 -227 -1 -248 -5z"/>
<path d="M3585 8585 c-173 -37 -614 -179 -638 -205 -9 -10 -8 -12 7 -6 150 53
606 193 686 211 58 13 94 23 80 24 -14 0 -74 -11 -135 -24z"/>
<path d="M5595 8571 c11 -4 54 -19 95 -33 41 -14 84 -28 95 -32 20 -8 20 -8 0
8 -21 18 -166 66 -193 65 -14 0 -13 -2 3 -8z"/>
<path d="M3979 8544 c-75 -13 -135 -31 -128 -38 2 -2 38 2 79 10 41 7 112 16
158 20 52 4 78 10 70 15 -19 12 -90 9 -179 -7z"/>
<path d="M4525 8500 c-16 -3 59 -9 168 -13 109 -4 229 -14 268 -22 39 -8 78
-15 87 -15 40 1 -19 20 -104 34 -96 16 -370 26 -419 16z"/>
<path d="M3492 8445 c-134 -45 -373 -152 -386 -174 -10 -16 0 -14 42 9 84 44
245 110 380 154 78 26 142 50 142 52 0 12 -60 -1 -178 -41z"/>
<path d="M4008 8468 c-59 -5 -127 -16 -150 -23 l-43 -15 55 5 c253 21 306 27
315 36 11 11 -24 10 -177 -3z"/>
<path d="M4600 8421 c8 -5 70 -11 138 -15 103 -5 278 -35 365 -62 9 -3 17 -1
17 4 0 12 -180 56 -285 72 -85 12 -256 13 -235 1z"/>
<path d="M3555 8379 c-115 -41 -316 -135 -350 -163 -21 -17 -2 -9 200 82 61
27 147 61 192 76 46 15 85 32 88 37 10 16 -17 9 -130 -32z"/>
<path d="M4449 8385 c229 -21 544 -80 645 -121 13 -5 17 -3 14 6 -15 46 -394
117 -663 125 l-150 4 154 -14z"/>
<path d="M5255 8360 c3 -5 14 -10 23 -10 31 0 249 -78 322 -115 80 -40 106
-41 38 -1 -61 36 -176 82 -261 105 -112 30 -129 33 -122 21z"/>
<path d="M3860 8343 c-90 -15 -539 -185 -503 -191 12 -2 77 19 145 46 143 58
370 132 404 132 12 0 26 5 29 10 6 10 -26 11 -75 3z"/>
<path d="M2585 8284 c-55 -30 -107 -62 -115 -71 -12 -13 -8 -12 15 2 17 10 66
39 110 63 73 40 107 62 95 62 -3 0 -50 -25 -105 -56z"/>
<path d="M2752 8290 c-70 -33 -255 -150 -248 -157 2 -2 32 13 67 35 35 21 103
60 151 86 48 26 90 52 93 57 9 13 7 12 -63 -21z"/>
<path d="M5210 8263 c0 -5 42 -19 93 -32 117 -29 274 -91 333 -131 59 -41 79
-34 21 8 -62 44 -160 86 -280 121 -129 37 -167 45 -167 34z"/>
<path d="M2238 8149 c-70 -62 -179 -190 -245 -289 -77 -115 -146 -237 -141
-252 3 -7 17 11 32 40 32 64 181 285 240 356 22 28 74 84 115 124 84 83 84 96
-1 21z"/>
<path d="M2080 8123 c-70 -72 -157 -195 -233 -330 -62 -113 -70 -148 -9 -43
104 179 176 283 249 360 91 97 85 107 -7 13z"/>
<path d="M2770 8107 c-58 -29 -161 -100 -180 -123 -19 -23 -13 -19 95 54 44
30 92 59 108 64 15 6 27 14 27 19 0 11 4 12 -50 -14z"/>
<path d="M3180 8087 c-35 -17 -59 -32 -52 -35 11 -3 128 44 147 60 21 19 -34
4 -95 -25z"/>
<path d="M1865 8048 c-94 -96 -244 -336 -233 -370 3 -7 17 14 32 47 38 84 143
238 216 318 78 84 67 88 -15 5z"/>
<path d="M1535 7973 c-31 -38 -73 -97 -92 -132 -46 -81 -115 -257 -111 -279 2
-9 17 21 32 68 46 137 98 229 216 383 43 55 9 25 -45 -40z"/>
<path d="M1648 7956 c-47 -60 -128 -204 -128 -227 0 -8 23 27 51 76 28 50 68
114 91 143 54 72 41 79 -14 8z"/>
<path d="M2136 7919 c-72 -79 -193 -283 -184 -310 2 -6 30 37 63 96 32 59 83
139 113 177 60 78 65 100 8 37z"/>
<path d="M2208 7888 c-96 -114 -209 -290 -195 -304 2 -3 24 27 48 66 44 71
113 169 171 242 48 59 27 55 -24 -4z"/>
<path d="M2328 7768 c-62 -61 -134 -155 -126 -164 3 -2 28 24 56 59 28 35 74
85 102 111 27 26 50 49 50 51 0 16 -26 -2 -82 -57z"/>
<path d="M2415 7749 c-48 -44 -112 -129 -98 -129 12 0 156 160 150 166 -3 3
-27 -14 -52 -37z"/>
<path d="M1408 7364 c-7 -18 -12 -84 -12 -174 0 -165 14 -233 70 -341 33 -62
114 -156 114 -132 0 7 -6 16 -14 20 -23 14 -84 106 -106 163 -45 112 -63 309
-40 430 12 61 6 76 -12 34z"/>
<path d="M1496 7279 c-27 -139 28 -364 114 -462 40 -45 62 -50 24 -4 -80 95
-130 268 -123 425 4 74 -4 96 -15 41z"/>
<path d="M1256 7277 c-12 -27 0 -201 19 -272 19 -73 94 -229 130 -270 18 -21
11 -3 -24 65 -76 146 -102 234 -110 375 -5 77 -10 113 -15 102z"/>
<path d="M1617 7204 c-5 -32 0 -63 24 -140 32 -104 54 -146 102 -201 40 -45
55 -42 18 5 -60 74 -114 219 -133 352 -3 20 -5 16 -11 -16z"/>
<path d="M1741 7205 c-1 -86 38 -201 108 -312 45 -74 41 -47 -9 50 -28 55 -54
124 -65 172 -10 44 -21 91 -25 105 -7 22 -9 20 -9 -15z"/>
<path d="M1985 7135 c10 -57 48 -148 63 -153 11 -3 11 2 -1 24 -8 16 -23 56
-33 89 -22 73 -39 97 -29 40z"/>
<path d="M1820 6524 c0 -10 87 -118 123 -153 19 -18 41 -31 48 -29 7 2 -9 22
-38 47 -28 23 -66 64 -84 92 -30 43 -49 60 -49 43z"/>
<path d="M1700 6497 c-1 -31 200 -247 231 -247 7 0 -28 39 -78 88 -49 48 -104
105 -121 127 -17 22 -31 37 -32 32z"/>
<path d="M6825 7981 c9 -16 156 -68 237 -85 81 -17 206 -21 158 -6 -14 4 -46
8 -71 9 -59 1 -187 34 -257 66 -58 26 -77 31 -67 16z"/>
<path d="M6780 7941 c0 -30 177 -84 345 -106 84 -11 45 3 -67 25 -109 21 -191
46 -246 74 -18 9 -32 12 -32 7z"/>
<path d="M6400 7111 c-11 -8 8 -11 70 -11 97 0 184 -20 249 -56 56 -31 75 -30
36 1 -53 44 -131 67 -240 72 -60 2 -106 0 -115 -6z"/>
<path d="M6490 7072 c0 -5 33 -16 74 -26 40 -9 101 -30 135 -46 65 -31 83 -25
29 8 -52 32 -238 81 -238 64z"/>
<path d="M7275 7781 c3 -5 47 -23 98 -40 103 -33 183 -49 173 -33 -3 5 -25 12
-48 16 -24 4 -83 20 -131 37 -98 32 -101 33 -92 20z"/>
<path d="M7190 7761 c0 -17 85 -72 134 -86 68 -20 146 -30 146 -18 0 6 -26 13
-58 16 -60 5 -122 31 -179 73 -34 26 -43 29 -43 15z"/>
<path d="M7529 7598 c23 -57 45 -90 83 -123 60 -51 67 -43 11 13 -27 27 -57
67 -67 90 -20 43 -43 60 -27 20z"/>
<path d="M4656 7169 c-47 -137 -103 -284 -122 -321 -13 -26 -33 -71 -44 -99
-31 -79 -77 -167 -121 -236 -33 -49 -47 -63 -77 -71 l-37 -10 34 -1 c43 -1 84
41 138 139 l38 69 12 -75 c10 -64 28 -112 39 -101 2 1 -3 27 -11 57 -40 149 8
315 116 402 55 44 166 78 258 78 131 0 235 -37 317 -112 24 -22 44 -36 44 -30
0 18 -82 84 -136 109 -77 35 -187 56 -264 50 -82 -7 -193 -47 -233 -84 -24
-22 -28 -24 -22 -8 27 64 86 248 81 252 -3 3 -8 0 -10 -8z"/>
<path d="M4888 6740 c-14 -10 -31 -33 -38 -49 -10 -26 -9 -36 6 -67 11 -21 31
-46 45 -57 23 -17 32 -18 61 -8 46 15 79 52 80 89 1 33 -34 97 -58 106 -30 12
-72 6 -96 -14z"/>
<path d="M5222 6582 c-62 -162 -139 -240 -274 -276 -42 -12 -47 -15 -23 -15
74 -2 201 86 261 180 30 48 76 167 71 183 -2 6 -18 -27 -35 -72z"/>
<path d="M5311 6590 c-1 -8 -15 -39 -31 -68 -27 -46 -33 -51 -50 -42 -25 13
-27 -5 -2 -19 15 -9 11 -17 -38 -66 -77 -79 -107 -100 -125 -85 -11 9 -12 7
-8 -9 4 -15 -4 -24 -37 -41 -23 -12 -61 -25 -83 -30 -39 -7 -39 -8 -10 -9 17
-1 59 11 92 25 50 22 64 24 76 14 17 -14 21 0 5 16 -7 7 14 30 61 69 38 32 75
67 80 77 10 18 11 18 42 -3 l32 -22 -27 28 -27 28 30 59 c17 33 28 67 26 76
-4 13 -5 14 -6 2z"/>
<path d="M5195 6290 c-22 -11 -30 -17 -17 -14 12 3 22 2 22 -3 0 -15 -184
-190 -300 -284 -254 -207 -497 -368 -725 -480 -121 -59 -288 -119 -331 -119
-25 0 88 -153 186 -251 113 -113 209 -176 340 -220 191 -66 377 -38 645 94
162 80 237 147 337 301 90 140 148 314 148 448 0 61 -31 233 -54 297 -23 62
-73 158 -109 208 -26 37 -35 43 -66 43 -20 0 -54 -9 -76 -20z m96 0 c27 -15
69 -84 69 -115 0 -52 -285 -340 -487 -492 -257 -193 -575 -354 -790 -398 -108
-23 -150 -15 -185 34 -16 22 -28 43 -28 49 0 5 46 24 102 42 311 98 870 470
1180 784 57 58 107 105 111 105 5 1 17 -4 28 -9z m122 -222 c34 -81 57 -216
57 -333 0 -93 0 -93 -39 -142 -109 -138 -350 -313 -599 -434 -238 -116 -524
-200 -586 -171 -44 20 -61 66 -60 167 1 136 5 140 171 209 323 132 723 422
947 685 38 44 72 81 76 81 4 0 19 -28 33 -62z m40 -510 c-11 -50 -114 -247
-161 -309 -28 -36 -74 -87 -104 -113 -67 -59 -235 -145 -375 -193 -90 -30
-126 -37 -217 -41 -100 -4 -117 -2 -198 24 -48 15 -88 31 -88 35 0 3 28 12 63
18 99 19 311 94 447 159 238 112 431 241 555 368 39 40 73 73 77 73 3 1 4 -9
1 -21z"/>
<path d="M4778 6283 c23 -2 59 -2 80 0 20 2 1 4 -43 4 -44 0 -61 -2 -37 -4z"/>
<path d="M3110 6207 c3 -3 39 -11 80 -17 41 -6 90 -13 108 -16 l33 -5 -40 -45
c-50 -57 -73 -126 -74 -219 0 -64 4 -83 36 -149 20 -42 40 -76 45 -76 4 0 -8
32 -27 72 -33 67 -36 79 -36 162 0 80 4 98 28 144 16 31 45 65 70 83 l42 31
135 -7 c106 -5 144 -11 179 -27 44 -21 102 -72 134 -118 10 -14 8 -5 -5 20
-16 30 -40 56 -76 80 -49 32 -51 35 -30 41 13 3 -29 8 -92 12 -318 19 -419 26
-465 33 -27 4 -48 4 -45 1z"/>
<path d="M3791 6175 c9 -9 79 -35 79 -30 0 3 -16 13 -35 21 -34 14 -52 18 -44
9z"/>
<path d="M3938 6071 c56 -74 99 -150 137 -237 36 -85 69 -114 130 -114 25 1
22 3 -23 19 -29 10 -54 20 -56 22 -2 2 -20 42 -40 89 -36 84 -90 174 -141 238
-43 51 -49 37 -7 -17z"/>
<path d="M3619 5962 c-28 -25 -34 -37 -34 -72 0 -35 6 -47 33 -71 38 -34 65
-36 109 -9 38 23 49 56 34 103 -14 42 -36 63 -78 71 -26 6 -37 2 -64 -22z"/>
<path d="M3847 5711 c-20 -57 -68 -110 -125 -140 -40 -22 -39 -27 2 -11 63 24
151 135 144 182 -2 13 -9 3 -21 -31z"/>
<path d="M3435 5570 c8 -13 102 -40 134 -39 14 0 1 6 -29 13 -30 6 -65 17 -77
24 -26 15 -36 15 -28 2z"/>
<path d="M7705 6958 c-13 -111 -55 -270 -95 -356 -40 -84 -34 -110 7 -36 26
45 90 241 97 299 13 91 16 155 7 155 -5 0 -12 -28 -16 -62z"/>
<path d="M7367 6912 c-10 -35 -32 -94 -49 -130 -18 -37 -34 -71 -37 -77 -2 -5
4 -4 13 4 38 31 100 188 94 238 -2 22 -7 15 -21 -35z"/>
<path d="M7161 6868 c-6 -29 -23 -77 -36 -106 -27 -59 -31 -77 -14 -66 26 16
90 224 69 224 -4 0 -12 -24 -19 -52z"/>
<path d="M7226 6853 c-9 -36 -26 -84 -37 -104 -21 -43 -23 -49 -11 -49 14 0
61 112 70 168 13 73 0 65 -22 -15z"/>
<path d="M7570 6878 c0 -51 -47 -214 -83 -287 -17 -36 -33 -69 -35 -73 -2 -5
1 -8 7 -8 14 0 68 107 98 195 27 81 42 205 24 205 -6 0 -11 -15 -11 -32z"/>
<path d="M7775 6806 c-3 -9 -7 -23 -10 -31 -2 -8 0 -15 5 -15 11 0 25 48 16
57 -3 3 -8 -2 -11 -11z"/>
<path d="M7665 6543 c-21 -37 -64 -93 -94 -125 -29 -32 -50 -62 -46 -66 12
-12 118 112 158 187 48 90 35 93 -18 4z"/>
<path d="M7233 6396 c-17 -23 -49 -56 -71 -72 -41 -29 -52 -44 -31 -44 22 0
90 63 115 106 35 59 26 65 -13 10z"/>
<path d="M7396 6281 c-15 -15 -57 -46 -93 -67 -74 -43 -70 -60 4 -19 49 26 83
54 117 93 28 33 4 27 -28 -7z"/>
<path d="M2446 6090 c5 -5 32 -12 59 -15 l50 -5 -40 14 c-48 17 -83 20 -69 6z"/>
<path d="M3530 4890 c0 -5 -25 -34 -55 -65 -31 -30 -51 -55 -47 -55 13 0 112
106 112 119 0 6 -2 11 -5 11 -3 0 -5 -4 -5 -10z"/>
<path d="M5278 5043 c-3 -32 -2 -64 2 -72 4 -7 10 15 14 50 3 35 2 67 -3 72
-5 5 -11 -17 -13 -50z"/>
<path d="M4680 4300 c-6 -11 -9 -26 -7 -33 3 -7 10 1 16 17 14 35 7 47 -9 16z"/>
<path d="M2645 3156 c45 -37 159 -45 229 -17 45 18 25 23 -24 6 -52 -18 -103
-19 -150 -1 -80 30 -78 30 -55 12z"/>
<path d="M2952 2587 c-26 -28 -52 -77 -51 -97 0 -8 9 2 18 23 10 20 28 48 41
62 13 14 21 27 18 30 -2 3 -14 -5 -26 -18z"/>
<path d="M2966 2490 c-32 -36 -42 -50 -33 -50 2 0 23 20 47 45 24 25 39 45 33
45 -6 0 -27 -18 -47 -40z"/>
<path d="M3271 2294 c4 -42 11 -79 15 -82 9 -9 -5 141 -15 150 -4 5 -4 -26 0
-68z"/>
<path d="M3321 2360 c0 -8 8 -33 19 -55 11 -22 17 -29 14 -15 -10 38 -32 87
-33 70z"/>
<path d="M3191 2297 c-7 -31 -11 -63 -8 -70 2 -6 10 14 16 46 7 31 11 63 8 70
-2 6 -10 -14 -16 -46z"/>
<path d="M5843 1223 c-38 -86 -53 -151 -18 -78 13 28 24 56 24 63 1 7 8 27 17
43 8 17 14 33 11 35 -2 3 -18 -26 -34 -63z"/>
<path d="M5911 1248 c-13 -42 -25 -118 -18 -118 7 0 39 141 33 147 -2 2 -9
-11 -15 -29z"/>
<path d="M5950 1185 c0 -41 3 -75 8 -75 4 0 8 34 8 75 0 41 -3 75 -8 75 -4 0
-8 -34 -8 -75z"/>
<path d="M6010 1218 c0 -18 5 -40 10 -48 7 -11 10 -4 10 27 0 23 -4 45 -10 48
-6 4 -10 -7 -10 -27z"/>
</g>
</svg>
