<?xml version="1.0" standalone="no"?>
<!DOCTYPE svg PUBLIC "-//W3C//DTD SVG 20010904//EN"
 "http://www.w3.org/TR/2001/REC-SVG-20010904/DTD/svg10.dtd">
<svg version="1.0" xmlns="http://www.w3.org/2000/svg"
 width="500.000000pt" height="369.000000pt" viewBox="0 0 500.000000 369.000000"
 preserveAspectRatio="xMidYMid meet">

<g transform="translate(0.000000,369.000000) scale(0.100000,-0.100000)"
fill="#000000" stroke="none">
<path d="M2315 3660 c-147 -33 -271 -95 -335 -165 -14 -15 -45 -41 -69 -57
-35 -25 -51 -47 -82 -112 -20 -44 -41 -94 -45 -111 -3 -16 -13 -37 -20 -45 -7
-8 -87 -53 -179 -100 -91 -47 -187 -101 -213 -120 -61 -46 -109 -118 -118
-178 -4 -26 -24 -80 -45 -120 -22 -40 -39 -86 -39 -102 0 -62 89 -246 139
-288 9 -7 40 -25 69 -38 30 -15 53 -33 54 -42 0 -9 1 -24 2 -32 2 -22 45 -40
96 -40 25 0 78 -12 118 -27 72 -27 73 -29 68 -58 -4 -16 -16 -49 -27 -72 -11
-23 -18 -47 -14 -53 16 -27 110 7 181 65 23 19 47 35 53 35 13 0 54 -43 91
-96 l29 -41 -62 1 -61 1 -24 -45 c-13 -24 -32 -50 -42 -57 -10 -7 -26 -33 -36
-58 -9 -25 -20 -45 -23 -45 -4 0 -14 9 -23 20 -27 30 -61 34 -159 16 -99 -18
-165 -45 -198 -79 -58 -62 -92 -278 -73 -460 13 -125 42 -252 70 -306 26 -50
80 -75 161 -74 112 2 221 54 221 105 0 11 8 33 17 51 l17 32 18 -79 c11 -43
29 -91 41 -108 46 -63 124 -85 185 -54 69 36 195 25 337 -29 87 -32 256 -118
323 -164 48 -32 59 -46 69 -82 8 -31 27 -59 63 -94 47 -46 54 -50 99 -49 31 0
62 8 85 22 21 12 46 22 56 22 23 0 66 -54 81 -101 20 -63 92 -224 103 -232 41
-28 117 -10 174 42 55 51 48 73 -73 203 -68 73 -116 135 -136 175 l-32 63 45
48 c25 27 49 58 52 70 8 24 19 26 62 13 16 -5 53 -12 82 -16 50 -5 54 -4 81
26 27 29 31 30 63 20 18 -6 70 -32 113 -57 95 -53 119 -59 123 -26 7 46 -102
179 -178 217 -88 44 -200 55 -384 35 -89 -9 -90 -9 -143 21 -29 17 -55 34 -58
38 -2 5 34 11 81 14 70 4 92 10 125 32 53 34 78 91 79 171 l0 61 62 13 c156
34 223 209 116 306 -48 45 -166 92 -283 114 -105 20 -123 29 -149 72 l-25 41
37 46 c20 25 72 84 116 131 43 47 96 108 118 137 23 31 50 54 66 58 15 3 50
21 77 39 28 18 67 41 88 51 48 22 134 126 148 178 15 58 1 174 -27 226 l-25
45 45 45 c71 74 83 116 47 175 -10 17 -21 52 -25 79 -9 71 -31 105 -82 127
-41 18 -44 22 -44 56 0 49 -43 89 -114 105 -40 9 -57 18 -64 34 -23 50 -143
108 -188 91 -18 -7 -103 75 -153 148 -16 23 -39 51 -52 63 -26 23 -197 103
-222 103 -9 0 -42 7 -74 15 -83 22 -323 19 -428 -5z m383 -21 c45 -8 73 -19
89 -35 16 -16 23 -19 23 -9 0 37 99 -11 101 -48 1 -18 2 -19 6 -4 6 22 42 16
84 -14 32 -23 89 -108 89 -135 0 -13 3 -15 8 -7 9 14 70 -43 92 -86 12 -23 10
-27 -17 -50 -17 -15 -33 -39 -37 -54 -10 -40 -27 -42 -92 -9 -162 81 -329 116
-559 117 -235 0 -385 -30 -575 -116 -51 -22 -94 -38 -97 -35 -18 17 83 238
116 256 27 14 31 13 31 -7 1 -10 11 2 22 26 72 147 446 257 716 210z m642
-361 c44 -22 45 -24 48 -76 2 -29 -4 -77 -12 -105 -8 -28 -13 -53 -11 -55 2
-3 12 23 21 57 11 38 23 63 34 66 29 9 100 -12 127 -37 23 -21 25 -28 20 -93
-3 -47 -2 -62 4 -46 8 20 14 23 42 17 17 -3 40 -16 50 -27 22 -28 23 -106 0
-139 l-17 -25 22 19 c26 22 43 13 62 -34 11 -27 10 -34 -15 -69 -30 -44 -91
-91 -121 -92 -17 0 -17 -1 2 -9 27 -11 68 -64 83 -109 21 -63 10 -66 -18 -5
-16 34 -33 64 -38 67 -5 3 3 -19 18 -49 37 -73 54 -151 40 -184 -25 -56 -90
-123 -152 -158 -116 -64 -138 -74 -151 -70 -14 5 23 44 97 106 38 31 37 31 -9
-2 -72 -52 -84 -45 -46 28 l19 39 -23 -22 c-12 -11 -31 -21 -41 -21 -17 0 -16
3 6 27 17 20 18 23 3 10 -31 -26 -36 -21 -15 16 29 50 35 94 17 122 -20 31
-20 32 7 39 12 3 48 21 81 41 32 19 60 35 62 35 8 0 4 -97 -6 -129 -7 -25 -7
-32 1 -24 6 6 14 48 18 93 6 73 10 85 34 106 15 13 27 26 27 29 0 3 -21 -12
-47 -33 -51 -42 -104 -72 -166 -92 -48 -15 -85 -64 -143 -186 -23 -50 -59
-107 -78 -126 -20 -20 -39 -50 -42 -68 -4 -17 -16 -38 -28 -45 -27 -18 -102
-30 -109 -18 -3 5 8 68 24 139 32 137 59 298 59 351 0 27 -12 44 -70 102 l-70
69 -10 124 c-9 112 -8 125 9 148 25 34 79 70 107 70 25 0 124 -103 124 -129 0
-9 19 -29 42 -45 36 -26 39 -31 22 -37 -16 -6 -15 -8 8 -8 15 -1 29 -5 33 -10
12 -20 -21 -65 -60 -82 -22 -10 -33 -19 -25 -19 8 0 28 7 44 15 31 17 42 12
49 -20 2 -11 3 0 1 25 l-3 45 14 -35 15 -35 -6 34 c-5 29 -4 33 11 27 9 -3 34
-9 55 -12 22 -4 46 -14 54 -23 13 -14 12 -19 -12 -40 -15 -13 -28 -23 -30 -22
-1 1 -19 -15 -40 -35 -42 -41 -31 -37 47 18 30 21 65 38 78 38 32 0 29 15 -7
30 -37 15 -37 26 -3 62 15 15 22 28 16 28 -6 0 -18 -11 -27 -25 -19 -28 -47
-32 -108 -13 -43 13 -64 45 -54 83 5 18 4 19 -8 3 -11 -15 -15 -16 -34 -2 -11
8 -49 49 -83 90 l-61 77 12 41 c31 103 120 226 164 226 12 0 42 -10 66 -22z
m-615 -78 c97 -12 281 -68 336 -103 l34 -21 -50 -11 c-36 -8 -64 -24 -95 -52
-26 -24 -50 -39 -59 -36 -10 3 -12 2 -5 -4 6 -4 15 -28 18 -53 4 -25 9 -58 12
-73 l6 -28 -69 34 c-37 19 -104 46 -148 60 -236 73 -416 60 -683 -51 -64 -27
-129 -52 -143 -55 -34 -9 -87 7 -129 38 -18 14 -35 23 -37 21 -10 -10 28 -75
57 -98 l32 -25 -54 -23 c-70 -31 -254 -40 -311 -17 -48 21 -47 8 4 -38 52 -47
97 -65 176 -74 l63 -6 -32 -39 c-28 -35 -33 -37 -39 -20 -6 16 -8 15 -8 -7 -1
-15 -8 -33 -17 -40 -14 -11 -18 -10 -31 6 -14 19 -14 19 -8 -7 6 -23 2 -30
-33 -53 -22 -15 -67 -37 -99 -51 l-58 -24 81 0 c73 0 89 4 148 33 36 19 66 30
66 27 0 -16 -50 -119 -60 -125 -6 -4 -21 1 -33 11 -20 17 -19 16 2 -8 l23 -27
-33 -40 c-19 -22 -39 -41 -45 -41 -6 0 -21 12 -35 26 -13 14 -45 36 -70 49
-61 31 -103 82 -150 179 -50 103 -50 137 -3 207 20 30 42 74 50 99 17 55 17
53 3 44 -24 -15 38 81 76 118 24 24 104 71 210 125 93 47 183 92 198 101 16 8
63 19 105 24 43 5 124 19 182 31 88 19 141 23 335 26 128 1 270 -3 320 -9z
m-195 -501 c108 -74 184 -141 277 -247 72 -84 73 -85 73 -141 0 -32 6 -80 14
-107 26 -92 28 -170 6 -215 -27 -52 -141 -172 -201 -211 -27 -17 -49 -37 -49
-44 0 -7 -5 -16 -12 -20 -7 -5 -9 -2 -5 9 4 11 2 14 -8 10 -8 -3 -13 -8 -11
-12 2 -3 -6 -7 -17 -8 -12 0 -47 -9 -77 -18 -125 -37 -274 7 -380 114 -31 31
-87 101 -126 156 -88 125 -95 137 -56 101 18 -17 32 -27 32 -24 0 2 -14 32
-30 65 -61 122 -111 310 -110 417 l1 41 32 -65 c45 -90 86 -146 148 -205 29
-27 45 -39 36 -25 -71 106 -116 238 -124 368 -5 77 -4 92 9 92 20 0 226 -137
367 -243 63 -48 116 -85 118 -83 3 2 -33 77 -79 167 -45 90 -84 168 -87 173
-2 4 29 -16 68 -46 86 -66 311 -189 311 -171 0 3 -53 60 -117 126 -65 66 -111
116 -103 112 8 -5 53 -34 100 -66z m503 -196 c8 -10 18 -30 22 -45 l7 -27 -41
16 c-35 14 -39 18 -29 32 7 9 -2 3 -20 -13 -37 -35 -45 -15 -11 28 24 30 49
33 72 9z m-142 -49 c19 -32 20 -64 2 -64 -4 0 -17 27 -29 60 -23 64 -12 66 27
4z m-1131 -305 c0 -16 -5 -29 -12 -29 -9 0 -8 -4 2 -10 31 -20 -44 -14 -84 7
l-30 15 55 28 c30 15 57 25 62 23 4 -2 7 -17 7 -34z m168 -98 c3 -8 -1 -12 -9
-9 -7 2 -15 10 -17 17 -3 8 1 12 9 9 7 -2 15 -10 17 -17z m100 -237 c89 -44
127 -116 88 -169 -13 -18 -15 -18 -50 13 -35 30 -106 72 -123 72 -4 0 17 -14
47 -31 81 -44 101 -66 97 -106 -2 -18 -8 -34 -13 -34 -5 0 -16 -7 -25 -15 -9
-8 -18 -11 -22 -8 -3 3 -3 -3 0 -14 4 -19 -40 -90 -72 -115 -25 -19 -164 34
-184 71 -6 12 -5 28 5 51 8 18 14 40 14 48 0 25 63 147 90 173 14 14 33 40 42
58 21 39 38 40 106 6z m719 -67 c-7 -12 -17 -35 -21 -52 -4 -16 -24 -48 -44
-70 l-37 -40 37 34 c45 42 51 39 128 -65 91 -122 109 -164 116 -272 8 -102 4
-107 -45 -67 l-30 26 17 -40 c10 -23 18 -34 20 -25 5 20 24 13 38 -14 6 -12
14 -19 19 -14 5 4 5 1 1 -6 -4 -7 7 -65 25 -130 19 -64 33 -120 32 -123 -1 -3
34 -27 78 -54 58 -35 76 -51 67 -57 -8 -6 -2 -7 17 -2 75 17 114 23 159 24 43
0 47 -2 32 -13 -15 -11 -12 -12 23 -9 29 3 41 0 41 -9 0 -7 3 -9 6 -6 4 4 1
13 -6 22 -11 13 -5 15 48 15 98 0 154 -18 104 -34 -10 -3 -29 -30 -43 -58 -22
-48 -28 -53 -62 -56 -33 -3 -37 -1 -37 20 -1 20 -2 21 -11 6 -12 -22 -34 -22
-79 0 -27 14 -34 23 -33 42 3 23 2 23 -7 5 -5 -11 -14 -38 -20 -60 -17 -66
-23 -71 -59 -44 -17 12 -33 20 -37 17 -3 -4 4 -9 15 -13 26 -8 30 -62 6 -71
-9 -4 -22 -18 -29 -32 -13 -24 -11 -31 17 -82 42 -77 94 -146 140 -189 l38
-36 -46 -33 c-25 -17 -48 -32 -50 -32 -13 0 -50 48 -52 67 -3 32 -30 82 -74
134 -38 46 -38 47 -19 64 11 10 20 23 20 29 0 6 -5 3 -11 -7 -14 -24 -165 -97
-200 -97 -17 0 -32 9 -43 25 -9 14 -23 25 -31 25 -16 0 -45 49 -45 76 0 10 5
14 15 10 9 -3 37 -1 63 5 40 10 53 19 80 58 70 100 80 112 87 100 5 -8 10 -8
18 0 6 6 22 11 36 11 16 0 1 9 -41 24 -180 64 -208 105 -302 441 -13 50 -33
108 -42 130 -10 22 -17 43 -16 48 1 4 -8 7 -20 7 -21 -1 -21 -2 -5 -11 24 -14
21 -29 -5 -30 -21 -1 -21 -2 -3 -6 53 -13 33 -23 -45 -24 -47 -1 -128 -5 -180
-9 -71 -6 -52 -7 71 -3 182 6 214 1 206 -27 -3 -10 1 -21 8 -24 13 -5 31 -63
22 -72 -2 -3 -51 9 -108 25 -126 36 -206 51 -273 51 -73 0 -131 11 -114 21 8
6 2 9 -20 9 -23 0 -31 4 -26 12 5 8 0 9 -14 6 -35 -10 -25 8 11 20 28 9 29 10
8 11 l-24 1 23 25 c13 13 32 27 42 31 10 3 16 10 12 15 -8 13 179 269 197 269
12 0 20 -32 11 -44 -5 -6 -12 -20 -16 -31 -7 -19 -6 -19 16 1 13 12 30 24 38
27 13 5 13 6 -1 6 -9 1 -21 13 -28 27 -10 22 -9 31 4 51 15 23 17 23 33 6 9
-10 14 -14 10 -9 -5 6 -8 18 -8 28 0 12 -5 15 -17 11 -11 -4 -14 -3 -9 5 4 7
16 12 26 12 10 0 22 5 25 10 3 6 34 10 67 10 l61 0 -19 -22 -19 -23 22 19 c13
10 20 22 17 27 -2 4 5 13 16 19 15 8 19 17 15 33 -5 17 -4 19 4 7 9 -12 11
-10 11 11 0 33 14 48 18 19 2 -11 -3 -31 -11 -43z m-47 -8 c0 -11 -4 -17 -10
-14 -5 3 -10 1 -10 -4 0 -6 -4 -11 -10 -11 -17 0 -11 38 8 43 9 3 18 5 20 6 1
0 2 -8 2 -20z m-499 -69 c10 -6 19 -21 19 -34 0 -32 -43 -91 -64 -89 -13 1
-15 -2 -7 -10 17 -17 13 -27 -8 -27 -34 0 -51 26 -39 60 5 17 14 30 20 30 5 0
7 4 4 9 -3 4 0 22 7 40 12 33 33 39 68 21z m-465 -25 c8 -13 15 -39 13 -57 -1
-18 -1 -134 1 -258 3 -195 4 -210 10 -113 8 150 25 165 49 42 13 -66 20 -71
100 -88 30 -6 60 -19 68 -29 11 -15 12 -13 2 11 -7 15 -20 27 -30 27 -87 0
-50 67 42 77 50 5 57 3 93 -29 35 -31 40 -42 62 -137 21 -96 22 -106 8 -147
-8 -25 -12 -48 -9 -53 3 -5 -4 -29 -14 -54 -23 -52 -75 -89 -130 -91 -35 -1
-36 0 -34 34 2 35 2 35 -8 8 -6 -16 -15 -28 -19 -28 -13 0 -32 39 -27 55 3 7
-1 12 -10 11 -18 -1 -46 99 -41 149 3 27 7 31 48 36 l45 6 -55 3 c-84 4 -104
0 -122 -21 -15 -18 -17 -18 -20 -2 -2 10 -7 -15 -12 -54 -4 -40 -11 -75 -17
-78 -5 -4 -9 0 -9 7 0 7 -7 3 -15 -9 -25 -36 -143 -62 -200 -44 -16 5 -24 10
-17 10 7 1 10 6 6 12 -5 9 1 10 21 5 19 -5 57 2 117 20 l88 27 0 134 c0 120
-2 133 -17 133 -15 0 -16 -2 -3 -10 13 -8 12 -10 -5 -11 -17 -1 -18 -2 -2 -6
24 -6 23 -112 -2 -114 -13 -1 -12 -2 2 -6 15 -4 18 -14 16 -58 -2 -46 -5 -53
-23 -52 -12 0 -64 -12 -116 -26 -123 -35 -128 -34 -146 8 -23 56 -20 62 49 79
59 15 52 15 -38 2 l-40 -6 30 15 30 15 -32 -6 c-29 -5 -33 -3 -34 18 -1 13 -3
34 -4 47 -2 18 5 26 32 38 20 8 49 12 67 9 25 -5 27 -4 11 4 -16 9 -14 10 13
5 17 -2 47 -2 65 2 31 7 32 7 7 15 -16 5 -5 6 30 3 41 -3 47 -2 25 4 l-30 9
30 2 c21 2 24 4 10 7 -11 2 -74 -10 -140 -26 -131 -34 -137 -33 -133 29 1 23
9 39 23 47 20 12 20 12 -2 13 -19 0 -23 5 -23 35 0 29 4 36 26 41 20 5 23 9
12 16 -8 6 -1 7 22 4 28 -5 31 -4 15 4 -16 8 -11 9 20 5 27 -3 33 -2 20 4 -16
7 -8 11 39 22 33 7 54 15 48 17 -6 2 -52 -8 -101 -22 -49 -14 -92 -26 -95 -26
-3 0 -6 15 -6 34 0 33 3 36 55 55 31 12 61 21 68 21 7 0 6 4 -3 10 -20 13 -33
13 -24 -1 4 -8 -1 -9 -16 -4 -16 5 -20 4 -15 -5 5 -9 1 -10 -15 -5 -15 5 -20
4 -16 -4 4 -6 3 -11 -3 -11 -16 0 -23 19 -16 49 6 30 28 43 135 80 30 11 50
20 44 20 -6 1 -31 -6 -54 -14 -48 -17 -72 -19 -50 -5 8 5 11 10 5 10 -5 0 -17
-5 -25 -10 -13 -9 -13 -10 0 -10 9 -1 5 -6 -10 -15 -27 -14 -44 -10 -20 5 12
8 13 10 1 10 -46 0 97 89 144 90 16 0 17 2 6 9 -21 13 4 41 35 41 30 0 31 -18
2 -30 -18 -7 -12 -9 27 -8 28 0 40 3 28 5 -22 4 -30 23 -16 36 3 4 23 7 44 7
30 0 42 -6 55 -25z m594 6 c60 -17 63 -20 40 -29 -14 -6 -46 -19 -72 -31 l-48
-20 3 49 c1 28 4 50 7 50 3 -1 34 -9 70 -19z m-790 -10 c0 -13 -29 -35 -37
-28 -7 8 15 37 28 37 5 0 9 -4 9 -9z m-54 -27 c-3 -9 -6 -18 -6 -20 0 -2 -7
-4 -15 -4 -18 0 -19 12 -3 28 17 17 31 15 24 -4z m976 -16 c-7 -7 -12 -8 -12
-2 0 6 3 14 7 17 3 4 9 5 12 2 2 -3 -1 -11 -7 -17z m-1022 -12 c0 -15 -18 -31
-26 -23 -7 7 7 37 17 37 5 0 9 -6 9 -14z m954 -61 c-6 -16 -24 -21 -24 -7 0
11 11 22 21 22 5 0 6 -7 3 -15z m-344 -55 c-18 -28 -40 -55 -49 -60 -10 -6
-11 -10 -3 -10 7 0 25 18 40 40 15 21 29 39 32 40 3 0 13 -28 22 -62 15 -60
15 -64 -4 -90 -11 -16 -24 -28 -30 -28 -6 0 -36 19 -67 43 -49 36 -53 42 -33
45 12 2 22 10 22 18 0 8 16 32 36 54 21 23 33 44 28 51 -4 7 -3 9 4 5 6 -3 14
-1 17 5 4 5 9 8 12 5 3 -3 -9 -28 -27 -56z m270 -10 c0 -5 -4 -10 -10 -10 -5
0 -10 5 -10 10 0 6 5 10 10 10 6 0 10 -4 10 -10z m-398 -117 c32 -21 58 -41
58 -44 0 -4 -15 -10 -34 -13 -19 -4 -45 -16 -60 -27 l-25 -20 -11 41 c-10 39
-6 100 7 100 4 0 33 -17 65 -37z m-369 -230 c-7 -2 -19 -2 -25 0 -7 3 -2 5 12
5 14 0 19 -2 13 -5z m44 -249 c-3 -3 -12 -4 -19 -1 -8 3 -5 6 6 6 11 1 17 -2
13 -5z m-40 -10 c-3 -3 -12 -4 -19 -1 -8 3 -5 6 6 6 11 1 17 -2 13 -5z m2111
-110 c21 -14 114 -125 109 -131 -5 -4 -222 108 -225 116 -2 5 7 16 20 25 25
18 58 15 96 -10z m-314 -594 c-37 -38 -64 -51 -64 -31 0 8 87 71 98 71 3 0
-13 -18 -34 -40z m39 -20 c-42 -39 -65 -39 -28 0 16 17 36 30 44 30 11 0 6
-10 -16 -30z m40 -7 c-5 -12 -3 -14 7 -8 29 18 -4 -18 -42 -46 -48 -34 -58
-36 -51 -10 5 21 33 37 33 20 0 -6 5 -7 10 -4 6 4 8 10 6 14 -5 7 29 51 39 51
2 0 1 -7 -2 -17z m-109 -49 c22 -8 10 -24 -17 -23 -13 0 -16 3 -8 6 11 5 11 7
0 14 -16 10 1 12 25 3z"/>
<path d="M3181 3026 c10 -9 69 -36 69 -32 0 6 -55 36 -66 36 -4 0 -5 -2 -3 -4z"/>
<path d="M3346 3015 c-9 -26 -7 -32 5 -12 6 10 9 21 6 23 -2 3 -7 -2 -11 -11z"/>
<path d="M3307 2925 c-9 -19 -15 -35 -12 -35 7 0 37 61 33 66 -3 2 -12 -12
-21 -31z"/>
<path d="M3532 2915 c-12 -25 -20 -45 -17 -45 7 0 47 81 43 86 -3 2 -14 -17
-26 -41z"/>
<path d="M3109 2889 l-24 -20 30 17 c39 24 40 24 28 24 -6 0 -21 -9 -34 -21z"/>
<path d="M2993 2873 c3 -13 1 -23 -5 -23 -5 0 -2 -7 7 -16 8 -9 24 -33 35 -54
11 -21 25 -42 31 -46 6 -3 3 5 -6 20 -9 14 -28 52 -42 83 -13 32 -22 48 -20
36z"/>
<path d="M3489 2843 c-13 -16 -12 -17 4 -4 9 7 17 15 17 17 0 8 -8 3 -21 -13z"/>
<path d="M3090 2836 c0 -2 8 -10 18 -17 15 -13 16 -12 3 4 -13 16 -21 21 -21
13z"/>
<path d="M3150 2810 c-23 -7 -23 -8 -3 -9 12 -1 25 4 28 9 3 6 5 10 3 9 -2 -1
-14 -5 -28 -9z"/>
<path d="M3388 2813 c7 -3 16 -2 19 1 4 3 -2 6 -13 5 -11 0 -14 -3 -6 -6z"/>
<path d="M3611 2776 c-19 -19 -46 -40 -62 -46 l-28 -12 24 -32 c27 -36 61 -47
44 -14 -12 23 -20 23 -13 1 5 -15 3 -15 -10 1 -9 11 -16 24 -16 29 0 4 24 30
53 57 28 27 50 49 46 50 -3 0 -20 -15 -38 -34z"/>
<path d="M3091 2719 c13 -8 88 -14 78 -5 -2 2 -24 6 -48 9 -29 4 -40 2 -30 -4z"/>
<path d="M3499 2673 c13 -26 47 -46 64 -39 7 2 4 5 -6 5 -10 1 -30 13 -44 29
-21 22 -24 23 -14 5z"/>
<path d="M3173 2523 c9 -2 25 -2 35 0 9 3 1 5 -18 5 -19 0 -27 -2 -17 -5z"/>
<path d="M3249 2512 c9 -7 10 -11 2 -15 -7 -4 -8 -5 -1 -3 16 2 14 20 -2 24
-10 3 -10 2 1 -6z"/>
<path d="M3486 2425 c-9 -26 -7 -32 5 -12 6 10 9 21 6 23 -2 3 -7 -2 -11 -11z"/>
<path d="M3571 2424 c0 -11 3 -14 6 -6 3 7 2 16 -1 19 -3 4 -6 -2 -5 -13z"/>
<path d="M3611 2414 c0 -11 3 -14 6 -6 3 7 2 16 -1 19 -3 4 -6 -2 -5 -13z"/>
<path d="M3561 2393 c-1 -6 -4 -20 -7 -30 -5 -17 -5 -17 6 0 6 10 9 23 6 30
-3 9 -5 9 -5 0z"/>
<path d="M3586 2345 c-9 -26 -7 -32 5 -12 6 10 9 21 6 23 -2 3 -7 -2 -11 -11z"/>
<path d="M3574 2278 l-19 -23 23 19 c21 18 27 26 19 26 -2 0 -12 -10 -23 -22z"/>
<path d="M3434 2248 l-19 -23 23 19 c12 11 22 21 22 23 0 8 -8 2 -26 -19z"/>
<path d="M3485 2210 c-3 -6 1 -7 9 -4 18 7 21 14 7 14 -6 0 -13 -4 -16 -10z"/>
<path d="M2078 3163 c6 -2 18 -2 25 0 6 3 1 5 -13 5 -14 0 -19 -2 -12 -5z"/>
<path d="M2158 3163 c12 -2 30 -2 40 0 9 3 -1 5 -23 4 -22 0 -30 -2 -17 -4z"/>
<path d="M2288 3163 c17 -2 47 -2 65 0 17 2 3 4 -33 4 -36 0 -50 -2 -32 -4z"/>
<path d="M2588 3163 c23 -2 59 -2 80 0 20 2 1 4 -43 4 -44 0 -61 -2 -37 -4z"/>
<path d="M2038 3153 c7 -3 16 -2 19 1 4 3 -2 6 -13 5 -11 0 -14 -3 -6 -6z"/>
<path d="M2733 3153 c9 -2 23 -2 30 0 6 3 -1 5 -18 5 -16 0 -22 -2 -12 -5z"/>
<path d="M1998 3143 c7 -3 16 -2 19 1 4 3 -2 6 -13 5 -11 0 -14 -3 -6 -6z"/>
<path d="M2788 3143 c6 -2 18 -2 25 0 6 3 1 5 -13 5 -14 0 -19 -2 -12 -5z"/>
<path d="M1943 3133 c9 -2 23 -2 30 0 6 3 -1 5 -18 5 -16 0 -22 -2 -12 -5z"/>
<path d="M2838 3133 c7 -3 16 -2 19 1 4 3 -2 6 -13 5 -11 0 -14 -3 -6 -6z"/>
<path d="M1878 3123 c6 -2 18 -2 25 0 6 3 1 5 -13 5 -14 0 -19 -2 -12 -5z"/>
<path d="M2878 3123 c7 -3 16 -2 19 1 4 3 -2 6 -13 5 -11 0 -14 -3 -6 -6z"/>
<path d="M1838 3113 c7 -3 16 -2 19 1 4 3 -2 6 -13 5 -11 0 -14 -3 -6 -6z"/>
<path d="M2940 3105 c46 -18 64 -17 25 0 -16 8 -37 14 -45 14 -8 0 1 -7 20
-14z"/>
<path d="M1768 3094 c-16 -8 -28 -17 -28 -20 0 -2 12 2 28 9 15 8 34 17 42 20
13 5 13 5 0 6 -8 0 -27 -7 -42 -15z"/>
<path d="M1695 3055 c-16 -8 -23 -14 -14 -15 8 0 24 7 35 15 23 18 18 18 -21
0z"/>
<path d="M2278 3043 c6 -2 18 -2 25 0 6 3 1 5 -13 5 -14 0 -19 -2 -12 -5z"/>
<path d="M1614 3014 c-18 -14 -18 -15 4 -4 12 6 22 13 22 15 0 8 -5 6 -26 -11z"/>
<path d="M2588 3023 c7 -3 16 -2 19 1 4 3 -2 6 -13 5 -11 0 -14 -3 -6 -6z"/>
<path d="M2085 3005 c-39 -17 -21 -18 25 0 19 7 28 14 20 14 -8 0 -28 -6 -45
-14z"/>
<path d="M2268 3013 c12 -2 30 -2 40 0 9 3 -1 5 -23 4 -22 0 -30 -2 -17 -4z"/>
<path d="M2798 3003 c7 -3 16 -2 19 1 4 3 -2 6 -13 5 -11 0 -14 -3 -6 -6z"/>
<path d="M2583 2993 c9 -2 23 -2 30 0 6 3 -1 5 -18 5 -16 0 -22 -2 -12 -5z"/>
<path d="M2840 2990 c8 -5 20 -10 25 -10 6 0 3 5 -5 10 -8 5 -19 10 -25 10 -5
0 -3 -5 5 -10z"/>
<path d="M2020 2980 c-8 -5 -10 -10 -5 -10 6 0 17 5 25 10 8 5 11 10 5 10 -5
0 -17 -5 -25 -10z"/>
<path d="M2493 2983 c9 -2 23 -2 30 0 6 3 -1 5 -18 5 -16 0 -22 -2 -12 -5z"/>
<path d="M2638 2983 c7 -3 16 -2 19 1 4 3 -2 6 -13 5 -11 0 -14 -3 -6 -6z"/>
<path d="M2080 2970 c-8 -5 -10 -10 -5 -10 6 0 17 5 25 10 8 5 11 10 5 10 -5
0 -17 -5 -25 -10z"/>
<path d="M2558 2973 c6 -2 18 -2 25 0 6 3 1 5 -13 5 -14 0 -19 -2 -12 -5z"/>
<path d="M1478 2954 c-39 -21 -35 -28 5 -8 37 19 44 24 31 24 -5 -1 -21 -8
-36 -16z"/>
<path d="M2162 2953 c-24 -8 -41 -17 -39 -19 2 -2 28 5 58 15 30 11 47 20 39
19 -8 0 -34 -6 -58 -15z"/>
<path d="M2620 2960 c34 -11 60 -11 35 0 -11 5 -29 8 -40 8 -16 0 -15 -2 5 -8z"/>
<path d="M1814 2944 c-18 -14 -18 -15 4 -4 12 6 22 13 22 15 0 8 -5 6 -26 -11z"/>
<path d="M1499 2853 l-24 -28 28 24 c25 23 32 31 24 31 -2 0 -14 -12 -28 -27z"/>
<path d="M1594 2848 l-19 -23 23 19 c21 18 27 26 19 26 -2 0 -12 -10 -23 -22z"/>
<path d="M1338 2843 c-18 -21 -31 -43 -25 -43 2 0 13 14 25 30 25 33 24 41 0
13z"/>
<path d="M1559 2803 c-13 -16 -12 -17 4 -4 9 7 17 15 17 17 0 8 -8 3 -21 -13z"/>
<path d="M1530 2760 c-6 -11 -8 -20 -6 -20 3 0 10 9 16 20 6 11 8 20 6 20 -3
0 -10 -9 -16 -20z"/>
<path d="M1603 2768 c-15 -20 -25 -38 -20 -38 3 0 12 11 21 25 17 26 16 35 -1
13z"/>
<path d="M1664 2748 l-29 -33 33 29 c30 28 37 36 29 36 -2 0 -16 -15 -33 -32z"/>
<path d="M1689 2733 c-13 -16 -12 -17 4 -4 9 7 17 15 17 17 0 8 -8 3 -21 -13z"/>
<path d="M1343 2570 c0 -25 2 -35 4 -22 2 12 2 32 0 45 -2 12 -4 2 -4 -23z"/>
<path d="M1372 2560 c0 -14 4 -36 8 -50 6 -20 8 -21 8 -5 0 11 -4 34 -8 50 -7
27 -8 27 -8 5z"/>
<path d="M1421 2544 c0 -11 3 -14 6 -6 3 7 2 16 -1 19 -3 4 -6 -2 -5 -13z"/>
<path d="M1471 2524 c0 -11 3 -14 6 -6 3 7 2 16 -1 19 -3 4 -6 -2 -5 -13z"/>
<path d="M1341 2504 c0 -11 3 -14 6 -6 3 7 2 16 -1 19 -3 4 -6 -2 -5 -13z"/>
<path d="M1430 2506 c0 -11 30 -66 36 -66 2 0 -3 15 -12 33 -19 36 -24 44 -24
33z"/>
<path d="M1480 2494 c0 -6 7 -19 16 -30 14 -18 14 -18 3 6 -14 31 -19 36 -19
24z"/>
<path d="M1300 2475 c0 -5 5 -17 10 -25 5 -8 10 -10 10 -5 0 6 -5 17 -10 25
-5 8 -10 11 -10 5z"/>
<path d="M1360 2441 c0 -6 4 -13 10 -16 6 -3 7 1 4 9 -7 18 -14 21 -14 7z"/>
<path d="M1410 2430 c6 -11 13 -20 16 -20 2 0 0 9 -6 20 -6 11 -13 20 -16 20
-2 0 0 -9 6 -20z"/>
<path d="M1515 2286 c10 -14 19 -26 22 -26 7 0 -17 39 -28 46 -6 3 -3 -5 6
-20z"/>
<path d="M1460 2287 c0 -2 15 -16 33 -33 l32 -29 -29 33 c-28 30 -36 37 -36
29z"/>
<path d="M2527 2479 c-9 -5 -21 -8 -25 -5 -4 2 -24 -33 -44 -77 -21 -45 -32
-74 -24 -65 7 10 16 15 19 11 4 -3 7 1 7 10 0 9 7 35 17 58 12 32 26 46 57 60
23 10 34 19 26 18 -8 0 -23 -4 -33 -10z"/>
<path d="M2638 2483 c7 -3 16 -2 19 1 4 3 -2 6 -13 5 -11 0 -14 -3 -6 -6z"/>
<path d="M2595 2390 c-12 -20 4 -60 24 -60 28 0 47 28 34 48 -12 20 -48 28
-58 12z"/>
<path d="M2712 2315 c-10 -21 -9 -25 6 -25 13 -1 11 -6 -11 -25 -15 -13 -34
-22 -42 -19 -11 5 -13 2 -9 -10 8 -22 11 -21 55 19 22 19 37 35 34 35 -3 0 -1
10 5 23 10 20 10 20 -3 5 -19 -24 -30 -23 -22 2 9 28 0 25 -13 -5z"/>
<path d="M2396 2295 c-11 -8 -15 -15 -9 -15 6 0 16 7 23 15 16 19 11 19 -14 0z"/>
<path d="M2691 2197 l-34 -42 41 39 c35 33 44 37 57 26 21 -17 19 -39 -7 -69
l-23 -26 26 23 c14 12 28 22 32 22 11 0 27 -73 27 -125 0 -42 -6 -57 -32 -90
-28 -35 -28 -37 -5 -16 32 29 34 23 7 -29 -11 -22 -18 -40 -15 -40 3 0 17 24
30 53 27 57 33 143 15 208 -13 45 -51 103 -70 106 -8 2 -30 -16 -49 -40z"/>
<path d="M2020 2190 c12 -7 12 -12 2 -22 -22 -22 -12 -28 11 -5 27 25 25 37
-6 37 -18 0 -19 -2 -7 -10z"/>
<path d="M2113 2183 c9 -2 25 -2 35 0 9 3 1 5 -18 5 -19 0 -27 -2 -17 -5z"/>
<path d="M2260 2151 c0 -6 4 -13 10 -16 6 -3 7 1 4 9 -7 18 -14 21 -14 7z"/>
<path d="M2619 2133 l-24 -28 28 24 c25 23 32 31 24 31 -2 0 -14 -12 -28 -27z"/>
<path d="M2003 2090 c0 -25 2 -35 4 -22 2 12 2 32 0 45 -2 12 -4 2 -4 -23z"/>
<path d="M2140 2105 c-26 -31 18 -71 47 -43 12 12 13 20 4 37 -14 25 -34 27
-51 6z"/>
<path d="M2684 2089 c-25 -27 -77 -68 -164 -132 -14 -10 -18 -15 -10 -11 52
24 232 174 209 174 -3 0 -18 -14 -35 -31z"/>
<path d="M2569 2093 c-13 -16 -12 -17 4 -4 16 13 21 21 13 21 -2 0 -10 -8 -17
-17z"/>
<path d="M2310 2063 c0 -6 8 -17 18 -24 16 -13 16 -13 2 6 -8 11 -16 22 -17
24 -2 2 -3 0 -3 -6z"/>
<path d="M2199 1983 c-13 -16 -12 -17 4 -4 9 7 17 15 17 17 0 8 -8 3 -21 -13z"/>
<path d="M2285 1925 c-16 -8 -23 -14 -15 -14 8 0 26 6 40 14 32 18 15 18 -25
0z"/>
<path d="M2705 1894 l-30 -26 33 22 c17 12 32 23 32 26 0 7 -4 5 -35 -22z"/>
<path d="M2231 1898 c-1 -20 112 -138 131 -138 9 0 9 3 0 12 -7 7 -12 29 -12
50 0 32 5 42 33 59 17 12 23 18 12 14 -107 -39 -140 -39 -155 -2 -7 18 -9 18
-9 5z"/>
<path d="M2638 1854 c-38 -20 -36 -28 2 -9 17 9 30 18 30 20 0 7 -1 6 -32 -11z"/>
<path d="M2724 1828 l-29 -33 33 29 c30 28 37 36 29 36 -2 0 -16 -15 -33 -32z"/>
<path d="M2550 1810 c-8 -5 -10 -10 -5 -10 6 0 17 5 25 10 8 5 11 10 5 10 -5
0 -17 -5 -25 -10z"/>
<path d="M2385 1750 c3 -5 10 -10 16 -10 5 0 9 5 9 10 0 6 -7 10 -16 10 -8 0
-12 -4 -9 -10z"/>
<path d="M2478 1723 c6 -2 18 -2 25 0 6 3 1 5 -13 5 -14 0 -19 -2 -12 -5z"/>
<path d="M1870 1620 c35 -24 54 -31 30 -11 -14 11 -29 21 -35 21 -5 0 -3 -5 5
-10z"/>
<path d="M1930 1586 c0 -3 9 -10 20 -16 11 -6 20 -8 20 -6 0 3 -9 10 -20 16
-11 6 -20 8 -20 6z"/>
<path d="M2586 1638 c-8 -31 -8 -43 1 -34 8 8 16 56 10 56 -3 0 -7 -10 -11
-22z"/>
<path d="M2610 1566 c0 -9 30 -14 35 -6 4 6 -3 10 -14 10 -12 0 -21 -2 -21 -4z"/>
<path d="M2566 1525 c-4 -15 -9 -25 -12 -22 -5 5 -53 -35 -123 -102 -20 -18
-9 -11 24 16 96 80 112 88 133 71 9 -8 24 -18 32 -22 8 -4 5 1 -7 10 -13 9
-23 24 -23 33 0 9 -4 22 -9 29 -6 10 -10 7 -15 -13z"/>
<path d="M2650 1527 c0 -2 15 -16 33 -33 l32 -29 -29 33 c-28 30 -36 37 -36
29z"/>
<path d="M2430 1450 c-12 -16 -19 -30 -16 -30 2 0 14 14 26 30 12 17 19 30 16
30 -2 0 -14 -13 -26 -30z"/>
<path d="M2640 1455 c0 -2 23 -16 50 -30 28 -14 50 -23 50 -20 0 2 -22 16 -50
30 -27 14 -50 23 -50 20z"/>
<path d="M2738 1429 c12 -14 20 -28 16 -31 -3 -4 4 -12 16 -18 19 -10 20 -10
12 7 -6 10 -23 29 -39 43 l-28 25 23 -26z"/>
<path d="M2367 1365 l-28 -35 88 2 88 2 -73 3 c-56 3 -71 7 -64 16 9 12 23 47
19 47 -1 0 -15 -16 -30 -35z"/>
<path d="M2308 1323 c7 -3 16 -2 19 1 4 3 -2 6 -13 5 -11 0 -14 -3 -6 -6z"/>
<path d="M2543 1323 c9 -2 23 -2 30 0 6 3 -1 5 -18 5 -16 0 -22 -2 -12 -5z"/>
<path d="M2608 1313 c7 -3 16 -2 19 1 4 3 -2 6 -13 5 -11 0 -14 -3 -6 -6z"/>
<path d="M2648 1303 c7 -3 16 -2 19 1 4 3 -2 6 -13 5 -11 0 -14 -3 -6 -6z"/>
<path d="M2543 1273 c15 -2 37 -2 50 0 12 2 0 4 -28 4 -27 0 -38 -2 -22 -4z"/>
<path d="M2308 1263 c7 -3 16 -2 19 1 4 3 -2 6 -13 5 -11 0 -14 -3 -6 -6z"/>
<path d="M2628 1263 c6 -2 18 -2 25 0 6 3 1 5 -13 5 -14 0 -19 -2 -12 -5z"/>
<path d="M2808 1202 c15 -39 28 -67 30 -62 2 4 -4 25 -12 45 -20 47 -20 53 2
58 14 4 13 5 -3 6 -12 0 -26 6 -32 12 -6 6 1 -20 15 -59z"/>
<path d="M2268 1253 c7 -3 16 -2 19 1 4 3 -2 6 -13 5 -11 0 -14 -3 -6 -6z"/>
<path d="M2348 1253 c6 -2 18 -2 25 0 6 3 1 5 -13 5 -14 0 -19 -2 -12 -5z"/>
<path d="M2278 1233 c7 -3 16 -2 19 1 4 3 -2 6 -13 5 -11 0 -14 -3 -6 -6z"/>
<path d="M2303 1203 c9 -2 25 -2 35 0 9 3 1 5 -18 5 -19 0 -27 -2 -17 -5z"/>
<path d="M2363 1183 c20 -2 54 -2 75 0 20 2 3 4 -38 4 -41 0 -58 -2 -37 -4z"/>
<path d="M2891 1134 c0 -11 3 -14 6 -6 3 7 2 16 -1 19 -3 4 -6 -2 -5 -13z"/>
<path d="M2901 1094 c0 -11 3 -14 6 -6 3 7 2 16 -1 19 -3 4 -6 -2 -5 -13z"/>
<path d="M2911 1054 c0 -11 3 -14 6 -6 3 7 2 16 -1 19 -3 4 -6 -2 -5 -13z"/>
<path d="M2922 1010 c0 -14 2 -19 5 -12 2 6 2 18 0 25 -3 6 -5 1 -5 -13z"/>
<path d="M2931 964 c0 -11 3 -14 6 -6 3 7 2 16 -1 19 -3 4 -6 -2 -5 -13z"/>
<path d="M2900 946 c0 -11 30 -66 36 -66 2 0 -3 15 -12 33 -19 36 -24 44 -24
33z"/>
<path d="M2941 924 c0 -11 3 -14 6 -6 3 7 2 16 -1 19 -3 4 -6 -2 -5 -13z"/>
<path d="M2951 884 c0 -11 3 -14 6 -6 3 7 2 16 -1 19 -3 4 -6 -2 -5 -13z"/>
<path d="M3024 786 c11 -9 24 -16 30 -16 12 0 7 5 -24 19 -24 11 -24 11 -6 -3z"/>
<path d="M3083 763 c9 -2 23 -2 30 0 6 3 -1 5 -18 5 -16 0 -22 -2 -12 -5z"/>
<path d="M3430 725 c0 -22 3 -26 9 -16 8 12 14 13 37 3 14 -7 28 -11 31 -9 2
2 -11 10 -29 18 -18 7 -36 18 -40 23 -4 6 -8 -2 -8 -19z"/>
<path d="M1683 1605 c0 -8 5 -15 11 -16 6 -1 0 -4 -14 -8 -24 -7 -24 -8 8 -13
26 -4 32 -2 27 9 -3 8 -5 21 -5 29 0 8 -6 14 -13 14 -8 0 -14 -7 -14 -15z"/>
<path d="M1726 1597 c3 -10 9 -15 12 -12 3 3 0 11 -7 18 -10 9 -11 8 -5 -6z"/>
<path d="M1618 1583 c6 -2 18 -2 25 0 6 3 1 5 -13 5 -14 0 -19 -2 -12 -5z"/>
<path d="M1555 1570 c-13 -5 -14 -9 -5 -9 8 0 24 4 35 9 13 5 14 9 5 9 -8 0
-24 -4 -35 -9z"/>
<path d="M1595 1560 c-25 -11 1 -11 35 0 20 6 21 8 5 8 -11 0 -29 -3 -40 -8z"/>
<path d="M1720 1511 c0 -28 -2 -30 -37 -25 -29 3 -33 2 -18 -5 11 -5 30 -10
43 -10 19 -1 22 4 22 34 0 19 -2 35 -5 35 -3 0 -5 -13 -5 -29z"/>
<path d="M1615 1470 c11 -5 27 -9 35 -9 13 -1 13 0 0 9 -8 5 -24 9 -35 9 l-20
0 20 -9z"/>
<path d="M1570 1459 c11 -8 8 -9 -13 -4 -19 4 -26 2 -22 -5 4 -7 -3 -9 -22 -5
-22 5 -25 4 -11 -4 12 -8 31 -8 68 1 39 9 48 14 34 19 -11 4 -26 8 -34 8 -13
1 -13 0 0 -10z"/>
<path d="M1655 1379 c-23 -6 -19 -7 20 -4 35 3 44 2 30 -4 -19 -9 -19 -10 3
-10 13 -1 22 5 22 14 0 16 -26 18 -75 4z"/>
<path d="M1598 1363 c7 -3 16 -2 19 1 4 3 -2 6 -13 5 -11 0 -14 -3 -6 -6z"/>
<path d="M1648 1353 c7 -3 16 -2 19 1 4 3 -2 6 -13 5 -11 0 -14 -3 -6 -6z"/>
<path d="M1598 1343 c7 -3 16 -2 19 1 4 3 -2 6 -13 5 -11 0 -14 -3 -6 -6z"/>
<path d="M1720 1321 c0 -25 -5 -31 -37 -40 l-38 -10 40 5 c29 3 36 2 25 -5 -9
-7 -10 -11 -3 -11 6 0 14 -12 16 -27 2 -16 5 5 6 45 0 39 -1 72 -4 72 -3 0 -5
-13 -5 -29z"/>
<path d="M1558 1333 c7 -3 16 -2 19 1 4 3 -2 6 -13 5 -11 0 -14 -3 -6 -6z"/>
<path d="M1518 1323 c7 -3 16 -2 19 1 4 3 -2 6 -13 5 -11 0 -14 -3 -6 -6z"/>
<path d="M1618 1263 c7 -3 16 -2 19 1 4 3 -2 6 -13 5 -11 0 -14 -3 -6 -6z"/>
<path d="M1578 1253 c7 -3 16 -2 19 1 4 3 -2 6 -13 5 -11 0 -14 -3 -6 -6z"/>
<path d="M1630 1250 c-20 -6 -21 -8 -5 -8 11 0 31 4 45 8 20 6 21 8 5 8 -11 0
-31 -4 -45 -8z"/>
<path d="M1470 1231 l-55 -17 55 0 c30 0 46 2 35 5 -15 3 -10 7 20 17 22 7 31
12 20 12 -11 0 -45 -8 -75 -17z"/>
<path d="M1578 1233 c7 -3 16 -2 19 1 4 3 -2 6 -13 5 -11 0 -14 -3 -6 -6z"/>
<path d="M1538 1223 c7 -3 16 -2 19 1 4 3 -2 6 -13 5 -11 0 -14 -3 -6 -6z"/>
<path d="M1405 1190 c-13 -5 -14 -9 -5 -9 8 0 24 4 35 9 13 5 14 9 5 9 -8 0
-24 -4 -35 -9z"/>
<path d="M1997 1097 c3 -13 11 -24 18 -24 10 0 10 5 -2 24 -8 13 -16 23 -18
23 -1 0 0 -10 2 -23z"/>
<path d="M2000 1030 c0 -14 -7 -20 -22 -21 l-23 0 22 -9 c15 -6 23 -21 28 -49
4 -23 11 -39 16 -35 5 3 5 13 -1 24 -13 24 -13 73 0 65 11 -7 13 6 4 29 -9 23
-24 20 -24 -4z"/>
<path d="M1638 1033 c6 -2 18 -2 25 0 6 3 1 5 -13 5 -14 0 -19 -2 -12 -5z"/>
<path d="M1522 1013 c-35 -8 -62 -17 -59 -19 2 -2 39 4 83 15 43 10 70 19 59
19 -11 0 -48 -7 -83 -15z"/>
<path d="M1648 1003 c7 -3 16 -2 19 1 4 3 -2 6 -13 5 -11 0 -14 -3 -6 -6z"/>
<path d="M1598 993 c6 -2 18 -2 25 0 6 3 1 5 -13 5 -14 0 -19 -2 -12 -5z"/>
<path d="M1548 983 c6 -2 18 -2 25 0 6 3 1 5 -13 5 -14 0 -19 -2 -12 -5z"/>
<path d="M3410 99 c0 -5 5 -7 10 -4 6 3 10 8 10 11 0 2 -4 4 -10 4 -5 0 -10
-5 -10 -11z"/>
</g>
</svg>
