<?xml version="1.0" standalone="no"?>
<!DOCTYPE svg PUBLIC "-//W3C//DTD SVG 20010904//EN"
 "http://www.w3.org/TR/2001/REC-SVG-20010904/DTD/svg10.dtd">
<svg version="1.0" xmlns="http://www.w3.org/2000/svg"
 width="920.000000pt" height="500.000000pt" viewBox="0 0 920.000000 500.000000"
 preserveAspectRatio="xMidYMid meet">

<g transform="translate(0.000000,500.000000) scale(0.100000,-0.100000)"
fill="#000000" stroke="none">
<path d="M4470 4908 c-204 -144 -348 -210 -550 -248 -264 -51 -522 -33 -933
67 -82 19 -150 34 -151 32 -2 -2 -116 -152 -254 -333 l-250 -328 91 -83 c194
-177 323 -358 375 -526 62 -202 33 -363 -138 -749 -94 -214 -150 -373 -181
-521 -30 -140 -33 -455 -6 -594 37 -187 99 -340 191 -469 53 -74 171 -187 247
-238 30 -20 350 -195 710 -389 360 -193 727 -391 816 -439 l163 -88 227 123
c126 67 494 265 818 440 325 174 622 338 660 363 251 166 410 425 455 737 12
89 12 288 0 384 -26 195 -77 350 -234 703 -123 278 -147 358 -153 508 -5 98
-2 128 16 193 51 185 183 377 393 566 l86 79 -250 328 c-138 181 -252 331
-254 333 -2 2 -70 -12 -151 -33 -269 -66 -425 -88 -633 -89 -347 -2 -535 56
-830 257 -74 51 -139 95 -145 98 -5 3 -66 -35 -135 -84z m252 -165 c62 -42
149 -93 193 -113 346 -161 745 -179 1258 -58 79 18 132 27 138 21 5 -5 90
-115 188 -243 l179 -234 -90 -91 c-235 -236 -355 -460 -365 -685 -9 -186 26
-314 181 -658 133 -297 165 -385 203 -562 25 -119 25 -414 0 -518 -47 -193
-126 -333 -263 -463 -78 -73 -147 -119 -334 -219 -333 -178 -1083 -582 -1242
-668 l-168 -91 -167 91 c-190 102 -1007 542 -1243 668 -187 100 -256 148 -336
231 -158 167 -230 341 -256 626 -8 92 -8 158 0 256 18 214 60 352 207 687 149
339 189 508 162 691 -31 207 -139 394 -351 609 l-94 95 179 234 c98 129 183
239 188 244 6 6 59 -3 138 -21 619 -146 1079 -90 1458 177 55 38 106 70 112
70 7 1 63 -34 125 -76z"/>
<path d="M4525 4594 c-141 -93 -331 -168 -529 -210 -95 -20 -161 -27 -311 -31
-214 -6 -366 8 -600 56 l-136 28 -108 -141 c-59 -78 -111 -147 -115 -154 -5
-8 16 -38 57 -85 217 -242 326 -461 343 -684 11 -151 -33 -393 -102 -557 -19
-44 -33 -81 -31 -82 1 -1 133 68 292 153 409 219 2507 1338 2702 1442 89 47
161 87 160 88 -1 1 -42 -7 -92 -18 -191 -40 -338 -52 -550 -46 -224 7 -326 23
-498 81 -119 39 -240 98 -338 162 -36 24 -68 44 -70 44 -2 0 -35 -21 -74 -46z
m-13 -304 l113 -5 -83 -29 c-45 -15 -84 -32 -87 -36 -2 -3 12 -31 31 -60 39
-59 43 -59 -81 -12 l-80 29 -89 -33 c-49 -19 -91 -32 -93 -30 -3 3 9 25 26 50
17 24 31 48 31 53 0 5 -39 22 -87 38 l-88 30 112 3 111 3 38 59 38 58 38 -56
38 -57 112 -5z m-729 -35 l37 -54 128 -3 127 -3 -97 -33 c-54 -19 -98 -38 -98
-43 0 -5 16 -31 36 -59 20 -27 33 -50 30 -50 -4 0 -52 16 -106 35 l-100 34
-100 -34 c-54 -19 -102 -35 -105 -35 -3 0 10 24 30 52 19 29 35 56 35 60 0 3
-44 21 -97 40 l-98 33 127 3 127 3 38 54 c21 30 40 55 43 55 3 -1 22 -25 43
-55z m1067 -5 l23 -50 96 0 c52 0 91 -4 86 -8 -6 -5 -36 -19 -68 -32 -31 -12
-60 -26 -63 -31 -3 -5 7 -29 21 -54 15 -25 22 -45 17 -45 -6 0 -40 13 -76 30
l-66 29 -66 -29 c-36 -17 -70 -30 -75 -30 -6 0 2 20 16 45 15 24 24 48 21 53
-3 5 -32 20 -63 32 -32 13 -62 27 -67 32 -6 4 33 8 85 8 l96 0 23 50 c13 28
26 50 30 50 4 0 17 -22 30 -50z m-1321 -322 l135 -3 -99 -39 c-55 -21 -103
-42 -107 -45 -4 -4 10 -36 31 -71 22 -36 38 -66 37 -68 -2 -1 -47 16 -101 38
-54 22 -105 40 -114 40 -9 0 -59 -18 -111 -40 -51 -22 -96 -38 -98 -36 -2 2
15 33 37 69 l40 65 -107 44 -107 43 132 3 132 3 42 70 42 71 41 -71 40 -70
135 -3z m230 -254 l46 -76 165 1 c92 1 160 -2 155 -7 -6 -4 -65 -30 -132 -56
-140 -54 -133 -37 -61 -153 21 -35 36 -63 33 -63 -3 0 -62 23 -132 51 l-128
51 -115 -46 c-63 -25 -123 -48 -133 -52 -18 -6 -7 16 64 132 l19 32 -122 48
c-68 26 -127 52 -133 56 -5 5 63 8 155 7 l165 -1 48 82 c27 45 51 79 54 76 3
-3 27 -40 52 -82z"/>
<path d="M5916 4187 c-38 -12 -40 -15 -54 -75 -23 -104 -4 -120 44 -39 87 144
87 137 10 114z"/>
<path d="M5632 3984 l-104 -56 3 -284 c2 -156 7 -284 12 -284 4 0 39 17 77 38
l70 37 0 50 0 51 143 77 c79 42 147 77 151 77 3 0 23 -11 44 -25 l38 -25 77
42 77 41 -237 159 c-131 87 -240 158 -243 158 -3 0 -52 -26 -108 -56z m168
-159 c44 -31 80 -58 80 -60 0 -4 -187 -105 -194 -105 -9 0 -7 215 1 224 10 10
24 3 113 -59z"/>
<path d="M5065 3675 c-66 -36 -173 -93 -237 -127 -65 -35 -118 -67 -118 -72 0
-7 227 -425 237 -436 5 -5 133 62 133 70 0 3 -13 29 -29 58 l-29 52 71 40 c40
22 100 54 134 71 71 36 77 34 119 -32 l23 -37 65 35 66 34 -24 47 c-40 78 -59
96 -100 95 -34 -1 -36 0 -22 15 30 35 28 64 -9 139 -68 137 -104 143 -280 48z
m144 -121 c12 -15 21 -37 21 -50 0 -24 -21 -38 -202 -137 l-66 -37 -32 57
c-18 31 -29 59 -24 60 5 2 61 32 124 68 63 35 125 64 137 64 12 1 31 -11 42
-25z"/>
<path d="M5765 3291 l-300 -158 -3 -1172 -2 -1172 117 62 c547 290 639 348
729 457 167 203 218 468 153 797 -28 138 -66 246 -175 492 -183 411 -208 498
-209 710 0 79 -2 143 -5 143 -3 0 -140 -72 -305 -159z"/>
<path d="M4320 3271 l-105 -57 1 -129 c0 -72 2 -201 2 -288 l2 -158 73 38 72
38 3 52 3 51 150 82 149 81 34 -26 c18 -14 39 -25 47 -25 8 1 45 18 83 39 l69
39 -229 154 c-126 84 -233 156 -239 160 -5 3 -57 -19 -115 -51z m158 -157 c45
-32 82 -60 82 -63 0 -3 -43 -29 -94 -57 l-94 -51 -6 30 c-8 40 -8 182 1 190
13 14 29 6 111 -49z"/>
<path d="M3702 2936 c-134 -73 -244 -136 -244 -140 0 -4 53 -106 118 -226
l119 -218 60 33 c33 18 144 79 248 135 103 56 187 105 187 109 0 3 -13 27 -28
53 l-28 47 -119 -65 c-66 -36 -148 -81 -182 -99 l-62 -34 -21 36 c-11 19 -20
37 -18 38 2 2 71 39 153 84 207 111 194 99 162 154 l-27 46 -170 -94 c-175
-96 -174 -95 -199 -48 -10 20 -2 26 169 118 99 54 180 99 180 101 0 6 -50 104
-53 104 -1 -1 -111 -61 -245 -134z"/>
<path d="M5045 2911 c-27 -15 -93 -50 -145 -77 -52 -27 -260 -137 -463 -244
l-367 -195 2 -884 3 -883 262 -144 263 -145 255 143 255 143 0 1157 c0 637 -3
1158 -7 1158 -5 0 -30 -13 -58 -29z m-490 -2056 c34 -33 32 -70 -8 -147 -26
-51 -38 -64 -60 -66 -33 -4 -33 -2 -2 48 29 46 30 51 10 44 -8 -4 -26 1 -40
10 -36 24 -35 86 1 115 35 28 69 26 99 -4z m295 -50 c0 -60 3 -75 15 -75 8 0
15 -7 15 -15 0 -8 -7 -15 -15 -15 -10 0 -15 -10 -15 -30 0 -23 -4 -30 -20 -30
-16 0 -20 7 -20 30 0 30 -1 30 -55 30 -30 0 -55 2 -55 5 0 3 25 43 57 90 74
112 93 114 93 10z m-450 -50 l0 -115 -26 0 -25 0 3 95 c3 93 2 95 -19 95 -13
0 -23 4 -23 8 0 18 26 32 57 32 l33 0 0 -115z m290 0 l0 -115 -25 0 c-25 0
-25 0 -25 95 0 88 -1 95 -20 95 -22 0 -23 1 -14 24 4 11 19 16 45 16 l39 0 0
-115z"/>
<path d="M4480 825 c-16 -20 -9 -49 14 -53 27 -6 48 25 35 49 -12 23 -32 24
-49 4z"/>
<path d="M4777 770 l-26 -40 30 0 c27 0 29 2 29 40 0 22 -1 40 -3 40 -2 0 -15
-18 -30 -40z"/>
<path d="M3154 2645 c-152 -79 -258 -146 -278 -177 -36 -55 -32 -77 39 -215
118 -232 143 -241 346 -142 142 69 262 143 293 180 37 44 31 111 -16 172 -13
18 -17 17 -76 -15 -62 -33 -62 -33 -57 -69 7 -42 1 -49 -127 -118 -99 -54
-130 -63 -156 -45 -24 17 -68 89 -88 146 -20 57 -8 71 108 135 115 64 152 74
167 45 10 -19 12 -19 76 15 36 19 65 39 65 45 0 6 -9 26 -21 44 -53 87 -106
87 -275 -1z"/>
<path d="M3635 2166 c-44 -23 -261 -138 -483 -255 l-402 -213 6 -37 c11 -58
54 -192 79 -241 39 -76 111 -166 179 -222 43 -36 171 -110 381 -222 174 -93
318 -166 321 -164 2 3 3 318 2 701 l-3 696 -80 -43z"/>
</g>
</svg>
